<?xml version='1.0' encoding='utf-8'?>
<svg xmlns="http://www.w3.org/2000/svg" width="1920" height="1080" viewBox="0 0 1920 1080" data-theme="dark">
  <style>
        @font-face {
            font-family: 'Inter';
            src: url('assets/fonts/Inter-Regular.ttf') format('truetype');
            font-weight: 400;
            font-style: normal;
            font-display: swap;
        }
        @font-face {
            font-family: 'Inter';
            src: url('assets/fonts/Inter-Bold.ttf') format('truetype');
            font-weight: 600;
            font-style: normal;
            font-display: swap;
        }
        @font-face {
            font-family: 'Inter';
            src: url('assets/fonts/Inter-Bold.ttf') format('truetype');
            font-weight: 800;
            font-style: normal;
            font-display: swap;
        }
        
:root {
    --background: #0f172a;
    --panel: #1e293b;
    --primary-text: #f1f5f9;
    --muted-text: #94a3b8;
    --inverse-text: #0f172a;
    --border: #334155;
    --shadow-color: #000000;
    --icon-pad-bg: #1e293b;
    --art-glow: #7dd3fc;
    --art-glow-opacity: 0.18;
    --art-sheen: #ffffff;
    --art-sheen-opacity: 0.18;
    --art-shadow: #000000;
    --art-shadow-opacity: 0.28;
    --art-muted-line: #64748b;
    --art-panel-tint: #1e293b;
    --font-family: 'Inter', 'Segoe UI', 'Kalam', Roboto, Helvetica, Arial, sans-serif;
    --radius-xl: 16px;
    --font-family-headline: 'Inter', 'Segoe UI', 'Kalam', Roboto, Helvetica, Arial, sans-serif;
    --font-family-body: 'Inter', 'Segoe UI', 'Kalam', Roboto, Helvetica, Arial, sans-serif;
    --font-heading: 'Inter', 'Segoe UI', 'Kalam', Roboto, Helvetica, Arial, sans-serif;
    --font-body: 'Inter', 'Segoe UI', 'Kalam', Roboto, Helvetica, Arial, sans-serif;
    --font-size-h1: 56px;
    --font-size-h2: 40px;
    --font-size-h3: 28px;
    --font-size-body: 24px;
    --font-size-caption: 18px;
    --secondary-text: var(--muted-text);
    --panel-border: var(--border);
    --font-weight-normal: 400;
    --font-weight-medium: 500;
    --font-weight-semibold: 600;
    --font-weight-bold: 700;
    --spacing-gutter-pct: 0.07;
    --spacing-top-pct: 0.15;
    --spacing-bottom-pct: 0.07;
    --spacing-title-y-pct: 0.055;
    --accent-1: #fbbf24;
    --accent-2: #fb923c;
    --accent-3: #f87171;
    --accent-4: #a3e635;
    --accent-5: #4ade80;
    --accent-6: #d4a574;
}
:root[data-theme="dark"] {
    --background: #0f172a;
    --panel: #1e293b;
    --primary-text: #f1f5f9;
    --muted-text: #94a3b8;
    --inverse-text: #0f172a;
    --border: #334155;
    --shadow-color: #000000;
    --icon-pad-bg: #1e293b;
    --art-glow: #7dd3fc;
    --art-glow-opacity: 0.18;
    --art-sheen: #ffffff;
    --art-sheen-opacity: 0.18;
    --art-shadow: #000000;
    --art-shadow-opacity: 0.28;
    --art-muted-line: #64748b;
    --art-panel-tint: #1e293b;
    --accent-1: #fbbf24;
    --accent-2: #fb923c;
    --accent-3: #f87171;
    --accent-4: #a3e635;
    --accent-5: #4ade80;
    --accent-6: #d4a574;
}
:root[data-theme="light"] {
    --background: #f8fafc;
    --panel: #ffffff;
    --primary-text: #0f172a;
    --muted-text: #64748b;
    --inverse-text: #ffffff;
    --border: #e2e8f0;
    --shadow-color: #000000;
    --icon-pad-bg: #1e293b;
    --art-glow: #0891b2;
    --art-glow-opacity: 0.10;
    --art-sheen: #ffffff;
    --art-sheen-opacity: 0.34;
    --art-shadow: #0f172a;
    --art-shadow-opacity: 0.14;
    --art-muted-line: #94a3b8;
    --art-panel-tint: #f1f5f9;
    --accent-1: #d97706;
    --accent-2: #ea580c;
    --accent-3: #dc2626;
    --accent-4: #65a30d;
    --accent-5: #16a34a;
    --accent-6: #92400e;
}</style>
  <rect x="0" y="0" width="1.92E+3" height="1.08E+3" fill="#252a34" stroke="none" id="programmatic_background"/>
  <line id="HEADER_DECOR" x1="960.0" x2="1080.0" y1="135.0" y2="135.0" stroke="var(--accent-1)" stroke-width="6" stroke-linecap="round"/>
  <defs>
    <pattern id="svgd0bdb6bb-napkin-hatch" patternUnits="userSpaceOnUse" width="12" height="12">
      <path d="M -3 12 L 12 -3 M 0 15 L 15 0" fill="none" stroke="var(--primary-text)" stroke-width="1" stroke-opacity="0.04"/>
    </pattern>
    <filter id="svgd0bdb6bb-soft-shadow" x="-30%" y="-30%" width="160%" height="160%">
      <feDropShadow dx="0" dy="4" stdDeviation="8" flood-color="#000000" flood-opacity="0.18"/>
    </filter>
    <radialGradient id="svgd0bdb6bb-universal-edge-vignette" cx="50%" cy="50%" r="72%">
      <stop offset="0%" stop-color="var(--background)" stop-opacity="0"/>
      <stop offset="72%" stop-color="var(--background)" stop-opacity="0.12"/>
      <stop offset="100%" stop-color="var(--primary-text)" stop-opacity="0.08"/>
    </radialGradient>
    <linearGradient id="svgd0bdb6bb-universal-surface-sheen" x1="0%" y1="0%" x2="100%" y2="100%">
      <stop offset="0%" stop-color="var(--art-sheen)" stop-opacity="var(--art-sheen-opacity)"/>
      <stop offset="46%" stop-color="var(--art-sheen)" stop-opacity="0.035"/>
      <stop offset="100%" stop-color="var(--art-panel-tint)" stop-opacity="0.14"/>
    </linearGradient>
    <radialGradient id="svgd0bdb6bb-universal-icon-aura" cx="50%" cy="42%" r="64%">
      <stop offset="0%" stop-color="var(--art-glow)" stop-opacity="var(--art-glow-opacity)"/>
      <stop offset="100%" stop-color="var(--background)" stop-opacity="0"/>
    </radialGradient>
    <linearGradient id="svgd0bdb6bb-tug-rope-sheen" x1="0%" y1="0%" x2="100%" y2="0%">
      <stop offset="0%" stop-color="var(--background)" stop-opacity="0"/>
      <stop offset="50%" stop-color="var(--inverse-text)" stop-opacity="0.16"/>
      <stop offset="100%" stop-color="var(--background)" stop-opacity="0"/>
    </linearGradient>
    <filter id="svgd0bdb6bb-text-glow" x="-20%" y="-20%" width="140%" height="140%">
      <feDropShadow dx="0" dy="0" stdDeviation="2" flood-color="#000000" flood-opacity="0.4"/>
    </filter>
    <filter id="svgd0bdb6bb-shadow" x="-30%" y="-30%" width="160%" height="160%">
      <feDropShadow dx="0" dy="2" stdDeviation="3" flood-color="#000000" flood-opacity="0.08"/>
      <feDropShadow dx="0" dy="6" stdDeviation="10" flood-color="#000000" flood-opacity="0.12"/>
    </filter>
    <marker id="svgd0bdb6bb-arrowhead" markerWidth="10" markerHeight="7" refX="9" refY="3.5" orient="auto" markerUnits="strokeWidth">
      <polygon points="0 0, 10 3.5, 0 7" fill="var(--muted-text)" opacity="0.6"/>
    </marker>
  </defs>
  <rect id="CANVAS_BG" width="100%" height="100%" fill="var(--background)"/>
  <rect width="100%" height="100%" fill="url(#svgd0bdb6bb-napkin-hatch)"/>
  <rect id="UNIVERSAL_EDGE_VIGNETTE" width="100%" height="100%" fill="url(#svgd0bdb6bb-universal-edge-vignette)" opacity="0.62"/>
  <text id="TITLE" x="960.0" y="59" text-anchor="middle" font-size="56" font-weight="800" fill="#f1f5f9" style="font-size: 60px; font-family: Inter, Segoe UI, Kalam, Roboto, Helvetica, Arial, sans-serif; font-weight: 700; letter-spacing:-1.2px;" data-final-font-size="60">
    <tspan x="960.0" dy="68.00px">RetailBench Strategy Drift</tspan>
  </text>
  <rect id="TITLE_FRAME" x="134" y="59" width="1652" height="103" fill="none"/>
  <ellipse cx="960" cy="332" rx="220" ry="58" fill="var(--panel)" fill-opacity="0.48" opacity="0.34"/>
  <path d="M 162 322 Q 614 304 934 332" fill="none" stroke="var(--primary-text)" stroke-width="16" stroke-linecap="round" opacity="0.10"/>
  <path d="M 1758 322 Q 1306 304 986 332" fill="none" stroke="var(--primary-text)" stroke-width="16" stroke-linecap="round" opacity="0.10"/>
  <path d="M 200 322 Q 616 308 936 332" fill="none" stroke="var(--muted-text)" stroke-width="8" stroke-linecap="round" opacity="0.88"/>
  <path d="M 1720 322 Q 1304 308 984 332" fill="none" stroke="var(--muted-text)" stroke-width="8" stroke-linecap="round" opacity="0.88"/>
  <path d="M 862 316 L 934 329" fill="none" stroke="var(--accent-2)" stroke-width="3" stroke-linecap="round" opacity="0.22"/>
  <path d="M 1058 316 L 986 329" fill="none" stroke="var(--accent-3)" stroke-width="3" stroke-linecap="round" opacity="0.22"/>
  <circle cx="960" cy="332" r="24" fill="var(--panel)" fill-opacity="0.94" stroke="var(--primary-text)" stroke-width="3"/>
  <path d="M 960 308 L 982 332 L 960 356 L 938 332 Z" fill="var(--primary-text)"/>
  <path d="M 350 334 L 382 384" fill="none" stroke="var(--muted-text)" stroke-width="3" stroke-linecap="round" opacity="0.7"/>
  <circle cx="382" cy="384" r="6" fill="var(--accent-1)"/>
  <g transform="translate(292, 414)" filter="url(#svgd0bdb6bb-soft-shadow)">
    <path d="M 46 0 L 74 -28 L 118 -28 Q 128 -28 132 -18 L 140 0 Z" fill="var(--panel)" fill-opacity="0.95" stroke="var(--accent-1)" stroke-width="3"/>
    <rect id="ITEM_1_BG" x="-185" y="0" width="370" height="344" rx="22" fill="var(--panel)" fill-opacity="0.96" stroke="var(--accent-1)" stroke-width="3"/>
    <rect x="-156" y="14" width="286" height="8" rx="4" fill="var(--accent-1)" fill-opacity="0.42"/>
    <path d="M 60 28 L 154 28 L 130 318 L 72 318 Z" fill="var(--accent-1)" fill-opacity="0.07"/>
    <circle id="ITEM_1_PAD" cx="0" cy="78" r="42" fill="var(--icon-pad-bg)" stroke="var(--primary-text)" opacity="0.92" fill-opacity="0.9" stroke-width="2"/>
    <circle id="ITEM_1_PAD_INNER" cx="0" cy="78" r="32.76" fill="var(--accent-3)" fill-opacity="0.22"/>
    <circle cx="0" cy="78" r="32" fill="none" stroke="var(--accent-1)" stroke-width="2.25" stroke-dasharray="5 4" opacity="0.82"/>
    <g id="ITEM_1_ICON" transform="translate(-31, 46)" data-icon-size="62" stroke-dasharray="5 4">
      <g transform="translate(-6.439999999999998,-4.099999999999998) scale(0.2925)" vector-effect="non-scaling-stroke" stroke-width="2.46" stroke-linecap="round" stroke-linejoin="round" stroke-opacity="1.0">
        <path d="M24,176V64A24,24,0,0,1,48,40H64V152H48a24,24,0,0,0,0,48H232V64H64" fill="none" stroke="#f1f5f9" vector-effect="non-scaling-stroke"/>
        <line x1="128" y1="96" x2="128" y2="160" fill="none" stroke="#f1f5f9" vector-effect="non-scaling-stroke"/>
        <line x1="168" y1="96" x2="168" y2="160" fill="none" stroke="#f1f5f9" vector-effect="non-scaling-stroke"/>
        <line x1="104" y1="112" x2="192" y2="112" fill="none" stroke="#f1f5f9" vector-effect="non-scaling-stroke"/>
        <line x1="104" y1="144" x2="192" y2="144" fill="none" stroke="#f1f5f9" vector-effect="non-scaling-stroke"/>
      </g>
    </g>
    <text id="ITEM_1_HEAD" x="0.0" y="138.0" text-anchor="middle" font-size="38" font-weight="800" fill="var(--accent-3)" data-bg-id="ITEM_1_BG" data-max-lines="3" data-min-font-size="13" fill-opacity="1.0" stroke="none" style="font-size: 30px; font-family: Inter, Segoe UI, Kalam, Roboto, Helvetica, Arial, sans-serif; font-weight: 700; letter-spacing:-0.4px;" data-final-font-size="30">
      <tspan x="0.0" dy="41.25px">Initial Plan</tspan>
    </text>
    <rect id="ITEM_1_HEAD_FRAME" x="-152" y="138" width="304" height="66" fill="none"/>
    <text id="ITEM_1_BODY" x="0.0" y="204.0" text-anchor="middle" font-size="24" fill="var(--primary-text)" data-bg-id="ITEM_1_BG" style="font-size: 26px; font-family: Inter, Segoe UI, Kalam, Roboto, Helvetica, Arial, sans-serif; font-weight: 400;" data-final-font-size="26">
      <tspan x="0.0" dy="30.86px">Agents start with</tspan>
      <tspan x="0.0" dy="29.90px">reasonable</tspan>
      <tspan x="0.0" dy="29.90px">high-level plans</tspan>
    </text>
    <rect id="ITEM_1_BODY_FRAME" x="-162" y="204" width="324" height="140" fill="none"/>
  </g>
  <path d="M 852 336 L 812 356" fill="none" stroke="var(--muted-text)" stroke-width="3" stroke-linecap="round" opacity="0.7"/>
  <circle cx="812" cy="356" r="6" fill="var(--accent-2)"/>
  <g transform="translate(722, 386)" filter="url(#svgd0bdb6bb-soft-shadow)">
    <path d="M 46 0 L 74 -28 L 118 -28 Q 128 -28 132 -18 L 140 0 Z" fill="var(--panel)" fill-opacity="0.95" stroke="var(--accent-2)" stroke-width="3"/>
    <rect id="ITEM_2_BG" x="-185" y="0" width="370" height="344" rx="22" fill="var(--panel)" fill-opacity="0.96" stroke="var(--accent-2)" stroke-width="3"/>
    <rect x="-156" y="14" width="286" height="8" rx="4" fill="var(--accent-2)" fill-opacity="0.42"/>
    <path d="M 60 28 L 154 28 L 130 318 L 72 318 Z" fill="var(--accent-2)" fill-opacity="0.07"/>
    <circle id="ITEM_2_PAD" cx="0" cy="78" r="42" fill="var(--icon-pad-bg)" stroke="var(--primary-text)" opacity="0.92" fill-opacity="0.9" stroke-width="2"/>
    <circle id="ITEM_2_PAD_INNER" cx="0" cy="78" r="32.76" fill="var(--accent-4)" fill-opacity="0.22"/>
    <circle cx="0" cy="78" r="32" fill="none" stroke="var(--accent-2)" stroke-width="2.25" stroke-dasharray="5 4" opacity="0.82"/>
    <g id="ITEM_2_ICON" transform="translate(-31, 46)" data-icon-size="62" stroke-dasharray="5 4">
      <g transform="translate(-4.5362711864406755,-3.1481355932203403) scale(2.9613559322033898)" vector-effect="non-scaling-stroke" stroke-width="2.46" stroke-linecap="round" stroke-linejoin="round" stroke-opacity="1.0">
        <path d="m12 14 4-4" vector-effect="non-scaling-stroke" fill="none" stroke="#f1f5f9"/>
        <path d="M3.34 19a10 10 0 1 1 17.32 0" vector-effect="non-scaling-stroke" fill="none" stroke="#f1f5f9"/>
      </g>
    </g>
    <text id="ITEM_2_HEAD" x="0.0" y="138.0" text-anchor="middle" font-size="38" font-weight="800" fill="var(--accent-4)" data-bg-id="ITEM_2_BG" data-max-lines="3" data-min-font-size="13" fill-opacity="1.0" stroke="none" style="font-size: 30px; font-family: Inter, Segoe UI, Kalam, Roboto, Helvetica, Arial, sans-serif; font-weight: 700; letter-spacing:-0.4px;" data-final-font-size="30">
      <tspan x="0.0" dy="41.25px">Pressure Rises</tspan>
    </text>
    <rect id="ITEM_2_HEAD_FRAME" x="-152" y="138" width="304" height="66" fill="none"/>
    <text id="ITEM_2_BODY" x="0.0" y="204.0" text-anchor="middle" font-size="24" fill="var(--primary-text)" data-bg-id="ITEM_2_BG" style="font-size: 26px; font-family: Inter, Segoe UI, Kalam, Roboto, Helvetica, Arial, sans-serif; font-weight: 400;" data-final-font-size="26">
      <tspan x="0.0" dy="36.84px">Environmental changes</tspan>
      <tspan x="0.0" dy="29.90px">create pressure to revise</tspan>
    </text>
    <rect id="ITEM_2_BODY_FRAME" x="-162" y="204" width="324" height="140" fill="none"/>
  </g>
  <path d="M 1068 336 L 1108 356" fill="none" stroke="var(--muted-text)" stroke-width="3" stroke-linecap="round" opacity="0.7"/>
  <circle cx="1108" cy="356" r="6" fill="var(--accent-3)"/>
  <g transform="translate(1198, 386)" filter="url(#svgd0bdb6bb-soft-shadow)">
    <path d="M -46 0 L -74 -28 L -118 -28 Q -128 -28 -132 -18 L -140 0 Z" fill="var(--panel)" fill-opacity="0.95" stroke="var(--accent-3)" stroke-width="3"/>
    <rect id="ITEM_3_BG" x="-185" y="0" width="370" height="344" rx="22" fill="var(--panel)" fill-opacity="0.96" stroke="var(--accent-3)" stroke-width="3"/>
    <rect x="-130" y="14" width="286" height="8" rx="4" fill="var(--accent-3)" fill-opacity="0.42"/>
    <path d="M -60 28 L -154 28 L -130 318 L -72 318 Z" fill="var(--accent-3)" fill-opacity="0.07"/>
    <circle id="ITEM_3_PAD" cx="0" cy="78" r="42" fill="var(--icon-pad-bg)" stroke="var(--primary-text)" opacity="0.92" fill-opacity="0.9" stroke-width="2"/>
    <circle id="ITEM_3_PAD_INNER" cx="0" cy="78" r="32.76" fill="var(--accent-5)" fill-opacity="0.22"/>
    <circle cx="0" cy="78" r="32" fill="none" stroke="var(--accent-3)" stroke-width="2.25" stroke-dasharray="5 4" opacity="0.82"/>
    <g id="ITEM_3_ICON" transform="translate(-31, 46)" data-icon-size="62" stroke-dasharray="5 4">
      <g transform="translate(-3.9623529411764684,-4.237647058823521) scale(2.9364705882352937)" vector-effect="non-scaling-stroke" stroke-width="2.46" stroke-linecap="round" stroke-linejoin="round" stroke-opacity="1.0">
        <path d="M22 14a8 8 0 0 1-8 8" vector-effect="non-scaling-stroke" fill="none" stroke="#f1f5f9"/>
        <path d="M18 11v-1a2 2 0 0 0-2-2a2 2 0 0 0-2 2" vector-effect="non-scaling-stroke" fill="none" stroke="#f1f5f9"/>
        <path d="M14 10V9a2 2 0 0 0-2-2a2 2 0 0 0-2 2v1" vector-effect="non-scaling-stroke" fill="none" stroke="#f1f5f9"/>
        <path d="M10 9.5V4a2 2 0 0 0-2-2a2 2 0 0 0-2 2v10" vector-effect="non-scaling-stroke" fill="none" stroke="#f1f5f9"/>
        <path d="M18 11a2 2 0 1 1 4 0v3a8 8 0 0 1-8 8h-2c-2.8 0-4.5-.86-5.99-2.34l-3.6-3.6a2 2 0 0 1 2.83-2.82L7 15" vector-effect="non-scaling-stroke" fill="none" stroke="#f1f5f9"/>
      </g>
    </g>
    <text id="ITEM_3_HEAD" x="0.0" y="138.0" text-anchor="middle" font-size="38" font-weight="800" fill="var(--accent-5)" data-bg-id="ITEM_3_BG" data-max-lines="3" data-min-font-size="13" fill-opacity="1.0" stroke="none" style="font-size: 30px; font-family: Inter, Segoe UI, Kalam, Roboto, Helvetica, Arial, sans-serif; font-weight: 700; letter-spacing:-0.4px;" data-final-font-size="30">
      <tspan x="0.0" dy="41.25px">Strategy Diverges</tspan>
    </text>
    <rect id="ITEM_3_HEAD_FRAME" x="-152" y="138" width="304" height="66" fill="none"/>
    <text id="ITEM_3_BODY" x="0.0" y="204.0" text-anchor="middle" font-size="24" fill="var(--primary-text)" data-bg-id="ITEM_3_BG" style="font-size: 26px; font-family: Inter, Segoe UI, Kalam, Roboto, Helvetica, Arial, sans-serif; font-weight: 400;" data-final-font-size="26">
      <tspan x="0.0" dy="30.86px">Strategy gradually moves</tspan>
      <tspan x="0.0" dy="29.90px">away from original</tspan>
      <tspan x="0.0" dy="29.90px">objective</tspan>
    </text>
    <rect id="ITEM_3_BODY_FRAME" x="-162" y="204" width="324" height="140" fill="none"/>
  </g>
  <path d="M 1570 334 L 1538 384" fill="none" stroke="var(--muted-text)" stroke-width="3" stroke-linecap="round" opacity="0.7"/>
  <circle cx="1538" cy="384" r="6" fill="var(--accent-4)"/>
  <g transform="translate(1628, 414)" filter="url(#svgd0bdb6bb-soft-shadow)">
    <path d="M -46 0 L -74 -28 L -118 -28 Q -128 -28 -132 -18 L -140 0 Z" fill="var(--panel)" fill-opacity="0.95" stroke="var(--accent-4)" stroke-width="3"/>
    <rect id="ITEM_4_BG" x="-185" y="0" width="370" height="344" rx="22" fill="var(--panel)" fill-opacity="0.96" stroke="var(--accent-4)" stroke-width="3"/>
    <rect x="-130" y="14" width="286" height="8" rx="4" fill="var(--accent-4)" fill-opacity="0.42"/>
    <path d="M -60 28 L -154 28 L -130 318 L -72 318 Z" fill="var(--accent-4)" fill-opacity="0.07"/>
    <circle id="ITEM_4_PAD" cx="0" cy="78" r="42" fill="var(--icon-pad-bg)" stroke="var(--primary-text)" opacity="0.92" fill-opacity="0.9" stroke-width="2"/>
    <circle id="ITEM_4_PAD_INNER" cx="0" cy="78" r="32.76" fill="var(--accent-6)" fill-opacity="0.22"/>
    <circle cx="0" cy="78" r="32" fill="none" stroke="var(--accent-4)" stroke-width="2.25" stroke-dasharray="5 4" opacity="0.82"/>
    <g id="ITEM_4_ICON" transform="translate(-31, 46)" data-icon-size="62" stroke-dasharray="5 4">
      <g transform="translate(-6.439999999999998,-6.439999999999998) scale(2.34)">
        <path d="M4.89138 11.3024L14.4322 14.7761L8.60967 6.45894C8.41734 6.18648 8.48466 5.80823 8.75712 5.6159C9.02959 5.42357 9.40784 5.49088 9.60017 5.76335L15.4246 14.082V3.92664C15.4246 3.59327 15.6971 3.3208 16.0305 3.3208C16.3638 3.3208 16.6363 3.59327 16.6363 3.92664V14.3388L23.3293 6.36276C23.5441 6.10632 23.9256 6.07427 24.182 6.28903C24.4384 6.5038 24.4705 6.88526 24.2557 7.1417L17.7289 14.9196L27.5349 12.2895C27.8587 12.203 28.1888 12.3953 28.2754 12.7191C28.3619 13.0428 28.1696 13.373 27.8458 13.4595L18.0359 16.0871L27.5831 19.5631C27.8972 19.6785 28.0607 20.0247 27.9453 20.3388C27.8555 20.5824 27.6247 20.7363 27.3747 20.7363C27.3074 20.7363 27.2369 20.7235 27.1663 20.701L17.6275 17.2271L23.4511 25.5446C23.6434 25.817 23.5761 26.1953 23.3037 26.3876C23.1979 26.4613 23.0761 26.4966 22.9543 26.4966C22.7619 26.4966 22.576 26.4069 22.4574 26.237L16.6363 17.9219V28.0736C16.6363 28.4101 16.3638 28.6794 16.0305 28.6794C15.6971 28.6794 15.4246 28.4069 15.4246 28.0736V17.6679L8.7315 25.6406C8.6129 25.7817 8.44301 25.8554 8.26991 25.8554C8.13208 25.8554 7.99424 25.8073 7.88205 25.7143C7.62561 25.4996 7.59355 25.1181 7.80832 24.8617L14.334 17.085L4.52268 19.7103C4.47139 19.7263 4.4201 19.7327 4.36561 19.7327C4.09955 19.7327 3.85273 19.5532 3.78221 19.2839C3.69566 18.9602 3.88799 18.63 4.21174 18.5435L14.0213 15.916L4.47787 12.4404C4.16373 12.325 4.00025 11.9788 4.11565 11.6646C4.23105 11.3505 4.57724 11.187 4.89138 11.3024Z" fill="#F3AD61"/>
        <path d="M16.0016 2C8.26995 2 2 8.26995 2 16.0016C2 23.7333 8.26995 30.0032 16.0016 30.0032C23.7333 30.0032 30 23.7333 30 16.0016C30 8.26995 23.7333 2 16.0016 2ZM16.0016 26.7532C9.77974 26.7532 5.23315 22.2203 5.23315 15.9984C5.23315 9.77653 9.77974 5.21953 16.0016 5.21953C22.2235 5.21953 26.7668 9.77653 26.7668 15.9984C26.7636 22.2235 22.2235 26.7532 16.0016 26.7532Z" fill="#A56953"/>
        <path d="M16.0016 5.73745C17.3864 5.73745 18.7327 6.00992 19.9956 6.54203C21.2169 7.05811 22.3164 7.79858 23.2588 8.741C24.2012 9.68342 24.9417 10.7829 25.4578 12.0042C25.9931 13.2704 26.2624 14.6135 26.2624 15.9982C26.2624 17.383 25.9899 18.7293 25.4578 19.9923C24.9417 21.2136 24.2012 22.3131 23.2588 23.2555C22.3164 24.1979 21.2169 24.9384 19.9956 25.4545C18.7295 25.9898 17.3864 26.259 16.0016 26.259C14.6168 26.259 13.2705 25.9866 12.0075 25.4545C10.7862 24.9384 9.68675 24.1979 8.74433 23.2555C7.80191 22.3131 7.06144 21.2136 6.54536 19.9923C6.01004 18.7261 5.74078 17.383 5.74078 15.9982C5.74078 14.6135 6.01325 13.2672 6.54536 12.0042C7.06144 10.7829 7.80191 9.68342 8.74433 8.741C9.68675 7.79858 10.7862 7.05811 12.0075 6.54203C13.2705 6.00992 14.6136 5.73745 16.0016 5.73745ZM16.0016 4.73413C9.77971 4.73413 4.73425 9.77958 4.73425 16.0014C4.73425 22.2233 9.77971 27.2688 16.0016 27.2688C22.2234 27.2688 27.2689 22.2233 27.2689 16.0014C27.2657 9.77958 22.2234 4.73413 16.0016 4.73413Z" fill="#6D4534"/>
        <path d="M16.0016 19.377C17.8658 19.377 19.377 17.8658 19.377 16.0016C19.377 14.1374 17.8658 12.6262 16.0016 12.6262C14.1374 12.6262 12.6262 14.1374 12.6262 16.0016C12.6262 17.8658 14.1374 19.377 16.0016 19.377Z" fill="#A56953"/>
        <path d="M16.0016 17.5755C16.8709 17.5755 17.5756 16.8709 17.5756 16.0016C17.5756 15.1324 16.8709 14.4277 16.0016 14.4277C15.1324 14.4277 14.4277 15.1324 14.4277 16.0016C14.4277 16.8709 15.1324 17.5755 16.0016 17.5755Z" fill="#F3C07B"/>
      </g>
    </g>
    <text id="ITEM_4_HEAD" x="0.0" y="138.0" text-anchor="middle" font-size="38" font-weight="800" fill="var(--accent-6)" data-bg-id="ITEM_4_BG" data-max-lines="3" data-min-font-size="13" fill-opacity="1.0" stroke="none" style="font-size: 30px; font-family: Inter, Segoe UI, Kalam, Roboto, Helvetica, Arial, sans-serif; font-weight: 700; letter-spacing:-0.4px;" data-final-font-size="30">
      <tspan x="0.0" dy="41.25px">Performance Drops</tspan>
    </text>
    <rect id="ITEM_4_HEAD_FRAME" x="-152" y="138" width="304" height="66" fill="none"/>
    <text id="ITEM_4_BODY" x="0.0" y="204.0" text-anchor="middle" font-size="24" fill="var(--primary-text)" data-bg-id="ITEM_4_BG" style="font-size: 26px; font-family: Inter, Segoe UI, Kalam, Roboto, Helvetica, Arial, sans-serif; font-weight: 400;" data-final-font-size="26">
      <tspan x="0.0" dy="36.84px">Errors accumulate and</tspan>
      <tspan x="0.0" dy="29.90px">performance deteriorates</tspan>
    </text>
    <rect id="ITEM_4_BODY_FRAME" x="-162" y="204" width="324" height="140" fill="none"/>
  </g>
</svg>
