<?xml version='1.0' encoding='utf-8'?>
<svg xmlns="http://www.w3.org/2000/svg" width="1920" height="1080" viewBox="0 0 1920 1080" data-theme="dark">
  <style>
        @font-face {
            font-family: 'Inter';
            src: url('assets/fonts/Inter-Regular.ttf') format('truetype');
            font-weight: 400;
            font-style: normal;
            font-display: swap;
        }
        @font-face {
            font-family: 'Inter';
            src: url('assets/fonts/Inter-Bold.ttf') format('truetype');
            font-weight: 600;
            font-style: normal;
            font-display: swap;
        }
        @font-face {
            font-family: 'Inter';
            src: url('assets/fonts/Inter-Bold.ttf') format('truetype');
            font-weight: 800;
            font-style: normal;
            font-display: swap;
        }
        
:root {
    --background: #0f172a;
    --panel: #1e293b;
    --primary-text: #f1f5f9;
    --muted-text: #94a3b8;
    --inverse-text: #0f172a;
    --border: #334155;
    --shadow-color: #000000;
    --icon-pad-bg: #1e293b;
    --art-glow: #7dd3fc;
    --art-glow-opacity: 0.18;
    --art-sheen: #ffffff;
    --art-sheen-opacity: 0.18;
    --art-shadow: #000000;
    --art-shadow-opacity: 0.28;
    --art-muted-line: #64748b;
    --art-panel-tint: #1e293b;
    --font-family: 'Inter', 'Segoe UI', 'Kalam', Roboto, Helvetica, Arial, sans-serif;
    --radius-xl: 16px;
    --font-family-headline: 'Inter', 'Segoe UI', 'Kalam', Roboto, Helvetica, Arial, sans-serif;
    --font-family-body: 'Inter', 'Segoe UI', 'Kalam', Roboto, Helvetica, Arial, sans-serif;
    --font-heading: 'Inter', 'Segoe UI', 'Kalam', Roboto, Helvetica, Arial, sans-serif;
    --font-body: 'Inter', 'Segoe UI', 'Kalam', Roboto, Helvetica, Arial, sans-serif;
    --font-size-h1: 56px;
    --font-size-h2: 40px;
    --font-size-h3: 28px;
    --font-size-body: 24px;
    --font-size-caption: 18px;
    --secondary-text: var(--muted-text);
    --panel-border: var(--border);
    --font-weight-normal: 400;
    --font-weight-medium: 500;
    --font-weight-semibold: 600;
    --font-weight-bold: 700;
    --spacing-gutter-pct: 0.07;
    --spacing-top-pct: 0.15;
    --spacing-bottom-pct: 0.07;
    --spacing-title-y-pct: 0.055;
    --accent-1: #fbbf24;
    --accent-2: #fb923c;
    --accent-3: #f87171;
    --accent-4: #a3e635;
    --accent-5: #4ade80;
    --accent-6: #d4a574;
}
:root[data-theme="dark"] {
    --background: #0f172a;
    --panel: #1e293b;
    --primary-text: #f1f5f9;
    --muted-text: #94a3b8;
    --inverse-text: #0f172a;
    --border: #334155;
    --shadow-color: #000000;
    --icon-pad-bg: #1e293b;
    --art-glow: #7dd3fc;
    --art-glow-opacity: 0.18;
    --art-sheen: #ffffff;
    --art-sheen-opacity: 0.18;
    --art-shadow: #000000;
    --art-shadow-opacity: 0.28;
    --art-muted-line: #64748b;
    --art-panel-tint: #1e293b;
    --accent-1: #fbbf24;
    --accent-2: #fb923c;
    --accent-3: #f87171;
    --accent-4: #a3e635;
    --accent-5: #4ade80;
    --accent-6: #d4a574;
}
:root[data-theme="light"] {
    --background: #f8fafc;
    --panel: #ffffff;
    --primary-text: #0f172a;
    --muted-text: #64748b;
    --inverse-text: #ffffff;
    --border: #e2e8f0;
    --shadow-color: #000000;
    --icon-pad-bg: #1e293b;
    --art-glow: #0891b2;
    --art-glow-opacity: 0.10;
    --art-sheen: #ffffff;
    --art-sheen-opacity: 0.34;
    --art-shadow: #0f172a;
    --art-shadow-opacity: 0.14;
    --art-muted-line: #94a3b8;
    --art-panel-tint: #f1f5f9;
    --accent-1: #d97706;
    --accent-2: #ea580c;
    --accent-3: #dc2626;
    --accent-4: #65a30d;
    --accent-5: #16a34a;
    --accent-6: #92400e;
}</style>
  <rect x="0" y="0" width="1.92E+3" height="1.08E+3" fill="#252a34" stroke="none" id="programmatic_background"/>
  <line id="HEADER_DECOR" x1="960.0" x2="1080.0" y1="135.0" y2="135.0" stroke="var(--accent-1)" stroke-width="6" stroke-linecap="round"/>
  <defs>
    <pattern id="svgf44e1867-napkin-hatch" patternUnits="userSpaceOnUse" width="12" height="12">
      <path d="M -3 12 L 12 -3 M 0 15 L 15 0" fill="none" stroke="var(--primary-text)" stroke-width="1" stroke-opacity="0.05"/>
    </pattern>
    <filter id="svgf44e1867-shadow" x="-30%" y="-30%" width="160%" height="160%">
      <feDropShadow dx="0" dy="2" stdDeviation="3" flood-color="#000000" flood-opacity="0.08"/>
      <feDropShadow dx="0" dy="6" stdDeviation="10" flood-color="#000000" flood-opacity="0.12"/>
    </filter>
    <marker id="svgf44e1867-arrowhead" markerWidth="10" markerHeight="10" refX="9" refY="5" orient="auto">
      <path d="M 0 0 L 10 5 L 0 10 Z" fill="var(--muted-text)"/>
    </marker>
    <filter id="svgf44e1867-text-glow" x="-20%" y="-20%" width="140%" height="140%">
      <feDropShadow dx="0" dy="0" stdDeviation="2" flood-color="#000000" flood-opacity="0.4"/>
    </filter>
    <radialGradient id="svgf44e1867-universal-edge-vignette" cx="50%" cy="50%" r="72%">
      <stop offset="0%" stop-color="var(--background)" stop-opacity="0"/>
      <stop offset="72%" stop-color="var(--background)" stop-opacity="0.12"/>
      <stop offset="100%" stop-color="var(--primary-text)" stop-opacity="0.08"/>
    </radialGradient>
    <linearGradient id="svgf44e1867-universal-surface-sheen" x1="0%" y1="0%" x2="100%" y2="100%">
      <stop offset="0%" stop-color="var(--art-sheen)" stop-opacity="var(--art-sheen-opacity)"/>
      <stop offset="46%" stop-color="var(--art-sheen)" stop-opacity="0.035"/>
      <stop offset="100%" stop-color="var(--art-panel-tint)" stop-opacity="0.14"/>
    </linearGradient>
    <radialGradient id="svgf44e1867-universal-icon-aura" cx="50%" cy="42%" r="64%">
      <stop offset="0%" stop-color="var(--art-glow)" stop-opacity="var(--art-glow-opacity)"/>
      <stop offset="100%" stop-color="var(--background)" stop-opacity="0"/>
    </radialGradient>
  </defs>
  <rect width="100%" height="100%" fill="var(--background)" id="CANVAS_BG"/>
  <rect width="100%" height="100%" fill="url(#svgf44e1867-napkin-hatch)"/>
  <rect id="UNIVERSAL_EDGE_VIGNETTE" width="100%" height="100%" fill="url(#svgf44e1867-universal-edge-vignette)" opacity="0.62"/>
  <text id="TITLE" x="960.0" y="59" text-anchor="middle" font-weight="800" font-size="56" fill="#f1f5f9" style="font-size: 60px; font-family: Inter, Segoe UI, Kalam, Roboto, Helvetica, Arial, sans-serif; font-weight: 700; letter-spacing:-1.2px;" data-final-font-size="60">
    <tspan x="960.0" dy="68.00px">AISI Control Strategies</tspan>
  </text>
  <rect id="TITLE_FRAME" x="134" y="59" width="1652" height="103" fill="none"/>
  <g id="DIAGRAM_MAIN" transform="translate(0, 70)">
    <line x1="520.0" y1="250.0" x2="525.0" y2="250.0" stroke="var(--muted-text)" stroke-width="4" stroke-dasharray="8 8" opacity="0.45" marker-end="url(#svgf44e1867-arrowhead)"/>
    <line x1="975.0" y1="250.0" x2="980.0" y2="250.0" stroke="var(--muted-text)" stroke-width="4" stroke-dasharray="8 8" opacity="0.45" marker-end="url(#svgf44e1867-arrowhead)"/>
    <path d="M 1430.0 250.0 C 1585.0 320.0, 142.5 600.0, 297.5 670.0" fill="none" stroke="var(--muted-text)" stroke-width="4" stroke-dasharray="8 8" opacity="0.45" marker-end="url(#svgf44e1867-arrowhead)"/>
    <line x1="747.5" y1="670.0" x2="752.5" y2="670.0" stroke="var(--muted-text)" stroke-width="4" stroke-dasharray="8 8" opacity="0.45" marker-end="url(#svgf44e1867-arrowhead)"/>
    <g transform="translate(295.0, 250.0)">
      <rect id="ITEM_1_BG" x="-210" y="-130" width="420" height="290" rx="22" fill="var(--panel)" stroke="var(--accent-1)" stroke-width="3" fill-opacity="0.92" filter="url(#svgf44e1867-shadow)"/>
      <circle cx="-175" cy="-95" r="6" fill="var(--muted-text)" opacity="0.35"/>
      <circle cx="-150" cy="-95" r="6" fill="var(--muted-text)" opacity="0.35"/>
      <circle cx="-125" cy="-95" r="6" fill="var(--muted-text)" opacity="0.35"/>
      <circle id="ITEM_1_PAD" cx="0" cy="-30" r="48" fill="var(--icon-pad-bg)" stroke="var(--primary-text)" opacity="0.9" fill-opacity="0.9" stroke-width="2"/>
      <circle id="ITEM_1_PAD_INNER" cx="0" cy="-30" r="37.44" fill="var(--accent-6)" fill-opacity="0.22"/>
      <circle cx="0" cy="-30" r="38" fill="none" stroke="var(--accent-1)" stroke-width="3" stroke-dasharray="6 4"/>
      <g id="ITEM_1_ICON" transform="translate(-38, -68)" data-icon-size="76" stroke-dasharray="6 4">
        <g transform="translate(-3.2203389830508473,-3.2203389830508473) scale(3.4350282485875705)" vector-effect="non-scaling-stroke" stroke-width="2.62" stroke-linecap="round" stroke-linejoin="round" stroke-opacity="1.0">
          <path d="m2 2 20 20" vector-effect="non-scaling-stroke" fill="none" stroke="#f1f5f9"/>
          <path d="M8.35 2.69A10 10 0 0 1 21.3 15.65" vector-effect="non-scaling-stroke" fill="none" stroke="#f1f5f9"/>
          <path d="M19.08 19.08A10 10 0 1 1 4.92 4.92" vector-effect="non-scaling-stroke" fill="none" stroke="#f1f5f9"/>
        </g>
      </g>
      <text id="ITEM_1_HEAD" x="0.0" y="40.0" text-anchor="middle" font-weight="700" font-size="27" fill="var(--accent-6)" data-bg-id="ITEM_1_BG" fill-opacity="1.0" stroke="none" style="font-size: 30px; font-family: Inter, Segoe UI, Kalam, Roboto, Helvetica, Arial, sans-serif; font-weight: 700; letter-spacing:-0.4px;" data-final-font-size="30">
        <tspan x="0.0" dy="33.25px">Targeted Intervention</tspan>
      </text>
      <rect id="ITEM_1_HEAD_FRAME" x="-190" y="40" width="380" height="50" fill="none"/>
      <text id="ITEM_1_BODY" x="0.0" y="95.0" text-anchor="middle" font-size="19.5" fill="var(--primary-text)" data-bg-id="ITEM_1_BG" style="font-size: 26px; font-family: Inter, Segoe UI, Kalam, Roboto, Helvetica, Arial, sans-serif; font-weight: 400;" data-final-font-size="26">
        <tspan x="0.0" dy="26.86px">Suppression of circuits</tspan>
        <tspan x="0.0" dy="29.90px">associated with dangerous</tspan>
        <tspan x="0.0" dy="29.90px">behaviour without retraining</tspan>
      </text>
      <rect id="ITEM_1_BODY_FRAME" x="-190" y="95" width="380" height="120" fill="none"/>
    </g>
    <g transform="translate(750.0, 250.0)">
      <rect id="ITEM_2_BG" x="-210" y="-130" width="420" height="290" rx="22" fill="var(--panel)" stroke="var(--accent-2)" stroke-width="3" fill-opacity="0.92" filter="url(#svgf44e1867-shadow)"/>
      <circle cx="-175" cy="-95" r="6" fill="var(--muted-text)" opacity="0.35"/>
      <circle cx="-150" cy="-95" r="6" fill="var(--muted-text)" opacity="0.35"/>
      <circle cx="-125" cy="-95" r="6" fill="var(--muted-text)" opacity="0.35"/>
      <circle id="ITEM_2_PAD" cx="0" cy="-30" r="48" fill="var(--icon-pad-bg)" stroke="var(--primary-text)" opacity="0.9" fill-opacity="0.9" stroke-width="2"/>
      <circle id="ITEM_2_PAD_INNER" cx="0" cy="-30" r="37.44" fill="var(--accent-1)" fill-opacity="0.22"/>
      <circle cx="0" cy="-30" r="38" fill="none" stroke="var(--accent-2)" stroke-width="3" stroke-dasharray="6 4"/>
      <g id="ITEM_2_ICON" transform="translate(-38, -68)" data-icon-size="76" stroke-dasharray="6 4">
        <g transform="translate(-15.450549450549453,-13.362637362637363) scale(4.454212454212454)" vector-effect="non-scaling-stroke" stroke-width="2.62" stroke-linecap="round" stroke-linejoin="round" stroke-opacity="1.0">
          <path d="M15 4l4 0l0 4" vector-effect="non-scaling-stroke" fill="none" stroke="#f1f5f9"/>
          <path d="M14.75 9.25l4.25 -5.25" vector-effect="non-scaling-stroke" fill="none" stroke="#f1f5f9"/>
          <path d="M5 19l4 -4" vector-effect="non-scaling-stroke" fill="none" stroke="#f1f5f9"/>
          <path d="M15 19l4 0l0 -4" vector-effect="non-scaling-stroke" fill="none" stroke="#f1f5f9"/>
          <path d="M5 5l14 14" vector-effect="non-scaling-stroke" fill="none" stroke="#f1f5f9"/>
        </g>
      </g>
      <text id="ITEM_2_HEAD" x="0.0" y="40.0" text-anchor="middle" font-weight="700" font-size="27" fill="var(--accent-1)" data-bg-id="ITEM_2_BG" fill-opacity="1.0" stroke="none" style="font-size: 30px; font-family: Inter, Segoe UI, Kalam, Roboto, Helvetica, Arial, sans-serif; font-weight: 700; letter-spacing:-0.4px;" data-final-font-size="30">
        <tspan x="0.0" dy="33.25px">Safety Triggers</tspan>
      </text>
      <rect id="ITEM_2_HEAD_FRAME" x="-190" y="40" width="380" height="50" fill="none"/>
      <text id="ITEM_2_BODY" x="0.0" y="95.0" text-anchor="middle" font-size="19.5" fill="var(--primary-text)" data-bg-id="ITEM_2_BG" style="font-size: 26px; font-family: Inter, Segoe UI, Kalam, Roboto, Helvetica, Arial, sans-serif; font-weight: 400;" data-final-font-size="26">
        <tspan x="0.0" dy="26.86px">Internal indicators activate</tspan>
        <tspan x="0.0" dy="29.90px">additional monitoring or</tspan>
        <tspan x="0.0" dy="29.90px">restricted modes</tspan>
      </text>
      <rect id="ITEM_2_BODY_FRAME" x="-190" y="95" width="380" height="120" fill="none"/>
    </g>
    <g transform="translate(1205.0, 250.0)">
      <rect id="ITEM_3_BG" x="-210" y="-130" width="420" height="290" rx="22" fill="var(--panel)" stroke="var(--accent-3)" stroke-width="3" fill-opacity="0.92" filter="url(#svgf44e1867-shadow)"/>
      <circle cx="-175" cy="-95" r="6" fill="var(--muted-text)" opacity="0.35"/>
      <circle cx="-150" cy="-95" r="6" fill="var(--muted-text)" opacity="0.35"/>
      <circle cx="-125" cy="-95" r="6" fill="var(--muted-text)" opacity="0.35"/>
      <circle id="ITEM_3_PAD" cx="0" cy="-30" r="48" fill="var(--icon-pad-bg)" stroke="var(--primary-text)" opacity="0.9" fill-opacity="0.9" stroke-width="2"/>
      <circle id="ITEM_3_PAD_INNER" cx="0" cy="-30" r="37.44" fill="var(--accent-2)" fill-opacity="0.22"/>
      <circle cx="0" cy="-30" r="38" fill="none" stroke="var(--accent-3)" stroke-width="3" stroke-dasharray="6 4"/>
      <g id="ITEM_3_ICON" transform="translate(-38, -68)" data-icon-size="76" stroke-dasharray="6 4">
        <g transform="translate(-5.428571428571429,-5.428571428571429) scale(2.7142857142857144)" vector-effect="non-scaling-stroke" fill="#f1f5f9" fill-opacity="1.0" stroke="none">
          <path fill="#f1f5f9" d="m15 17.18l-2.59-2.59L11 16l4 4l7-7l-1.41-1.41z" vector-effect="non-scaling-stroke" stroke="none"/>
          <path fill="#f1f5f9" d="M30 15h-2.05A12.01 12.01 0 0 0 17 4.05V2h-2v2.05A12.01 12.01 0 0 0 4.05 15H2v2h2.05A12.01 12.01 0 0 0 15 27.95V30h2v-2.05A12.01 12.01 0 0 0 27.95 17H30ZM17 25.95V23h-2v2.95A10.02 10.02 0 0 1 6.05 17H9v-2H6.05A10.02 10.02 0 0 1 15 6.05V9h2V6.05A10.02 10.02 0 0 1 25.95 15H23v2h2.949A10.02 10.02 0 0 1 17 25.95" vector-effect="non-scaling-stroke" stroke="none"/>
        </g>
      </g>
      <text id="ITEM_3_HEAD" x="0.0" y="40.0" text-anchor="middle" font-weight="700" font-size="27" fill="var(--accent-2)" data-bg-id="ITEM_3_BG" fill-opacity="1.0" stroke="none" style="font-size: 30px; font-family: Inter, Segoe UI, Kalam, Roboto, Helvetica, Arial, sans-serif; font-weight: 700; letter-spacing:-0.4px;" data-final-font-size="30">
        <tspan x="0.0" dy="33.25px">Verification Checks</tspan>
      </text>
      <rect id="ITEM_3_HEAD_FRAME" x="-190" y="40" width="380" height="50" fill="none"/>
      <text id="ITEM_3_BODY" x="0.0" y="95.0" text-anchor="middle" font-size="19.5" fill="var(--primary-text)" data-bg-id="ITEM_3_BG" style="font-size: 26px; font-family: Inter, Segoe UI, Kalam, Roboto, Helvetica, Arial, sans-serif; font-weight: 400;" data-final-font-size="26">
        <tspan x="0.0" dy="26.86px">Researchers inspect whether</tspan>
        <tspan x="0.0" dy="29.90px">reasoning processes match</tspan>
        <tspan x="0.0" dy="29.90px">intended objectives</tspan>
      </text>
      <rect id="ITEM_3_BODY_FRAME" x="-190" y="95" width="380" height="120" fill="none"/>
    </g>
    <g transform="translate(522.5, 670.0)">
      <rect id="ITEM_4_BG" x="-210" y="-130" width="420" height="290" rx="22" fill="var(--panel)" stroke="var(--accent-4)" stroke-width="3" fill-opacity="0.92" filter="url(#svgf44e1867-shadow)"/>
      <circle cx="-175" cy="-95" r="6" fill="var(--muted-text)" opacity="0.35"/>
      <circle cx="-150" cy="-95" r="6" fill="var(--muted-text)" opacity="0.35"/>
      <circle cx="-125" cy="-95" r="6" fill="var(--muted-text)" opacity="0.35"/>
      <circle id="ITEM_4_PAD" cx="0" cy="-30" r="48" fill="var(--icon-pad-bg)" stroke="var(--primary-text)" opacity="0.9" fill-opacity="0.9" stroke-width="2"/>
      <circle id="ITEM_4_PAD_INNER" cx="0" cy="-30" r="37.44" fill="var(--accent-3)" fill-opacity="0.22"/>
      <circle cx="0" cy="-30" r="38" fill="none" stroke="var(--accent-4)" stroke-width="3" stroke-dasharray="6 4"/>
      <g id="ITEM_4_ICON" transform="translate(-38, -68)" data-icon-size="76" stroke-dasharray="6 4">
        <g transform="translate(-6.685185185185189,-5.62962962962963) scale(2.251851851851852)">
          <path d="m28.459,17.793H11.527v-6.708c0-4.668,3.798-8.466,8.466-8.466s8.466,3.798,8.466,8.466v6.708Zm-13.932-3h10.932v-3.708c0-3.014-2.452-5.466-5.466-5.466s-5.466,2.452-5.466,5.466v3.708Z" fill="#6b7683"/>
          <rect x="4.993" y="13.085" width="30" height="23" rx="4" ry="4" fill="#afb7c0"/>
          <circle cx="19.993" cy="22.127" r="3" fill="#313d4c"/>
          <path d="m19.993,29.877c-.829,0-1.5-.672-1.5-1.5v-5.417c0-.828.671-1.5,1.5-1.5s1.5.672,1.5,1.5v5.417c0,.828-.671,1.5-1.5,1.5Z" fill="#313d4c"/>
        </g>
      </g>
      <text id="ITEM_4_HEAD" x="0.0" y="40.0" text-anchor="middle" font-weight="700" font-size="27" fill="var(--accent-3)" data-bg-id="ITEM_4_BG" fill-opacity="1.0" stroke="none" style="font-size: 30px; font-family: Inter, Segoe UI, Kalam, Roboto, Helvetica, Arial, sans-serif; font-weight: 700; letter-spacing:-0.4px;" data-final-font-size="30">
        <tspan x="0.0" dy="33.25px">Adversarial Adaptation</tspan>
      </text>
      <rect id="ITEM_4_HEAD_FRAME" x="-190" y="40" width="380" height="50" fill="none"/>
      <text id="ITEM_4_BODY" x="0.0" y="95.0" text-anchor="middle" font-size="19.5" fill="var(--primary-text)" data-bg-id="ITEM_4_BG" style="font-size: 26px; font-family: Inter, Segoe UI, Kalam, Roboto, Helvetica, Arial, sans-serif; font-weight: 400;" data-final-font-size="26">
        <tspan x="0.0" dy="26.86px">Models may learn to evade</tspan>
        <tspan x="0.0" dy="29.90px">oversight or generate</tspan>
        <tspan x="0.0" dy="29.90px">deceptive explanations</tspan>
      </text>
      <rect id="ITEM_4_BODY_FRAME" x="-190" y="95" width="380" height="120" fill="none"/>
    </g>
    <g transform="translate(977.5, 670.0)">
      <rect id="ITEM_5_BG" x="-210" y="-130" width="420" height="290" rx="22" fill="var(--panel)" stroke="var(--accent-5)" stroke-width="3" fill-opacity="0.92" filter="url(#svgf44e1867-shadow)"/>
      <circle cx="-175" cy="-95" r="6" fill="var(--muted-text)" opacity="0.35"/>
      <circle cx="-150" cy="-95" r="6" fill="var(--muted-text)" opacity="0.35"/>
      <circle cx="-125" cy="-95" r="6" fill="var(--muted-text)" opacity="0.35"/>
      <circle id="ITEM_5_PAD" cx="0" cy="-30" r="48" fill="var(--icon-pad-bg)" stroke="var(--primary-text)" opacity="0.9" fill-opacity="0.9" stroke-width="2"/>
      <circle id="ITEM_5_PAD_INNER" cx="0" cy="-30" r="37.44" fill="var(--accent-4)" fill-opacity="0.22"/>
      <circle cx="0" cy="-30" r="38" fill="none" stroke="var(--accent-5)" stroke-width="3" stroke-dasharray="6 4"/>
      <g id="ITEM_5_ICON" transform="translate(-38, -68)" data-icon-size="76" stroke-dasharray="6 4">
        <g transform="translate(-5.428571428571429,-5.428571428571431) scale(0.3392857142857143)" vector-effect="non-scaling-stroke" stroke-width="2.62" stroke-linecap="round" stroke-linejoin="round" stroke-opacity="1.0">
          <line x1="64" y1="56" x2="64" y2="200" fill="none" stroke="#f1f5f9" vector-effect="non-scaling-stroke"/>
          <line x1="192" y1="56" x2="192" y2="200" fill="none" stroke="#f1f5f9" vector-effect="non-scaling-stroke"/>
          <path d="M24,115.35A64,64,0,0,0,64,56a64,64,0,0,0,128,0,64,64,0,0,0,40,59.35" fill="none" stroke="#f1f5f9" vector-effect="non-scaling-stroke"/>
          <line x1="152" y1="115.35" x2="152" y2="168" fill="none" stroke="#f1f5f9" vector-effect="non-scaling-stroke"/>
          <line x1="104" y1="115.35" x2="104" y2="168" fill="none" stroke="#f1f5f9" vector-effect="non-scaling-stroke"/>
          <line x1="24" y1="168" x2="232" y2="168" fill="none" stroke="#f1f5f9" vector-effect="non-scaling-stroke"/>
        </g>
      </g>
      <text id="ITEM_5_HEAD" x="0.0" y="40.0" text-anchor="middle" font-weight="700" font-size="27" fill="var(--accent-4)" data-bg-id="ITEM_5_BG" fill-opacity="1.0" stroke="none" style="font-size: 30px; font-family: Inter, Segoe UI, Kalam, Roboto, Helvetica, Arial, sans-serif; font-weight: 700; letter-spacing:-0.4px;" data-final-font-size="30">
        <tspan x="0.0" dy="33.25px">Actionability Gap</tspan>
      </text>
      <rect id="ITEM_5_HEAD_FRAME" x="-190" y="40" width="380" height="50" fill="none"/>
      <text id="ITEM_5_BODY" x="0.0" y="95.0" text-anchor="middle" font-size="19.5" fill="var(--primary-text)" data-bg-id="ITEM_5_BG" style="font-size: 26px; font-family: Inter, Segoe UI, Kalam, Roboto, Helvetica, Arial, sans-serif; font-weight: 400;" data-final-font-size="26">
        <tspan x="0.0" dy="26.86px">Finding internal knowledge</tspan>
        <tspan x="0.0" dy="29.90px">does not guarantee ability</tspan>
        <tspan x="0.0" dy="29.90px">to steer behaviour</tspan>
      </text>
      <rect id="ITEM_5_BODY_FRAME" x="-190" y="95" width="380" height="120" fill="none"/>
    </g>
  </g>
</svg>
