<?xml version='1.0' encoding='utf-8'?>
<svg xmlns="http://www.w3.org/2000/svg" width="1920" height="1080" viewBox="0 0 1920 1080" data-theme="dark">
  <style>
        @font-face {
            font-family: 'Inter';
            src: url('assets/fonts/Inter-Regular.ttf') format('truetype');
            font-weight: 400;
            font-style: normal;
            font-display: swap;
        }
        @font-face {
            font-family: 'Inter';
            src: url('assets/fonts/Inter-Bold.ttf') format('truetype');
            font-weight: 600;
            font-style: normal;
            font-display: swap;
        }
        @font-face {
            font-family: 'Inter';
            src: url('assets/fonts/Inter-Bold.ttf') format('truetype');
            font-weight: 800;
            font-style: normal;
            font-display: swap;
        }
        
:root {
    --background: #0f172a;
    --panel: #1e293b;
    --primary-text: #f1f5f9;
    --muted-text: #94a3b8;
    --inverse-text: #0f172a;
    --border: #334155;
    --shadow-color: #000000;
    --icon-pad-bg: #1e293b;
    --art-glow: #7dd3fc;
    --art-glow-opacity: 0.18;
    --art-sheen: #ffffff;
    --art-sheen-opacity: 0.18;
    --art-shadow: #000000;
    --art-shadow-opacity: 0.28;
    --art-muted-line: #64748b;
    --art-panel-tint: #1e293b;
    --font-family: 'Inter', 'Segoe UI', 'Kalam', Roboto, Helvetica, Arial, sans-serif;
    --radius-xl: 16px;
    --font-family-headline: 'Inter', 'Segoe UI', 'Kalam', Roboto, Helvetica, Arial, sans-serif;
    --font-family-body: 'Inter', 'Segoe UI', 'Kalam', Roboto, Helvetica, Arial, sans-serif;
    --font-heading: 'Inter', 'Segoe UI', 'Kalam', Roboto, Helvetica, Arial, sans-serif;
    --font-body: 'Inter', 'Segoe UI', 'Kalam', Roboto, Helvetica, Arial, sans-serif;
    --font-size-h1: 56px;
    --font-size-h2: 40px;
    --font-size-h3: 28px;
    --font-size-body: 24px;
    --font-size-caption: 18px;
    --secondary-text: var(--muted-text);
    --panel-border: var(--border);
    --font-weight-normal: 400;
    --font-weight-medium: 500;
    --font-weight-semibold: 600;
    --font-weight-bold: 700;
    --spacing-gutter-pct: 0.07;
    --spacing-top-pct: 0.15;
    --spacing-bottom-pct: 0.07;
    --spacing-title-y-pct: 0.055;
    --accent-1: #fbbf24;
    --accent-2: #fb923c;
    --accent-3: #f87171;
    --accent-4: #a3e635;
    --accent-5: #4ade80;
    --accent-6: #d4a574;
}
:root[data-theme="dark"] {
    --background: #0f172a;
    --panel: #1e293b;
    --primary-text: #f1f5f9;
    --muted-text: #94a3b8;
    --inverse-text: #0f172a;
    --border: #334155;
    --shadow-color: #000000;
    --icon-pad-bg: #1e293b;
    --art-glow: #7dd3fc;
    --art-glow-opacity: 0.18;
    --art-sheen: #ffffff;
    --art-sheen-opacity: 0.18;
    --art-shadow: #000000;
    --art-shadow-opacity: 0.28;
    --art-muted-line: #64748b;
    --art-panel-tint: #1e293b;
    --accent-1: #fbbf24;
    --accent-2: #fb923c;
    --accent-3: #f87171;
    --accent-4: #a3e635;
    --accent-5: #4ade80;
    --accent-6: #d4a574;
}
:root[data-theme="light"] {
    --background: #f8fafc;
    --panel: #ffffff;
    --primary-text: #0f172a;
    --muted-text: #64748b;
    --inverse-text: #ffffff;
    --border: #e2e8f0;
    --shadow-color: #000000;
    --icon-pad-bg: #1e293b;
    --art-glow: #0891b2;
    --art-glow-opacity: 0.10;
    --art-sheen: #ffffff;
    --art-sheen-opacity: 0.34;
    --art-shadow: #0f172a;
    --art-shadow-opacity: 0.14;
    --art-muted-line: #94a3b8;
    --art-panel-tint: #f1f5f9;
    --accent-1: #d97706;
    --accent-2: #ea580c;
    --accent-3: #dc2626;
    --accent-4: #65a30d;
    --accent-5: #16a34a;
    --accent-6: #92400e;
}</style>
  <rect x="0" y="0" width="1.92E+3" height="1.08E+3" fill="#252a34" stroke="none" id="programmatic_background"/>
  <line id="HEADER_DECOR" x1="960.0" x2="1080.0" y1="107.0" y2="107.0" stroke="var(--accent-1)" stroke-width="6" stroke-linecap="round"/>
  <defs>
    <pattern id="svg33a149c6-napkin-hatch" patternUnits="userSpaceOnUse" width="12" height="12">
      <path d="M -3 12 L 12 -3 M 0 15 L 15 0" fill="none" stroke="var(--primary-text)" stroke-width="1" stroke-opacity="0.05"/>
    </pattern>
    <filter id="svg33a149c6-shadow" x="-30%" y="-30%" width="160%" height="160%">
      <feDropShadow dx="0" dy="2" stdDeviation="3" flood-color="#000000" flood-opacity="0.08"/>
      <feDropShadow dx="0" dy="6" stdDeviation="10" flood-color="#000000" flood-opacity="0.12"/>
    </filter>
    <filter id="svg33a149c6-soft-glow" x="-40%" y="-40%" width="180%" height="180%">
      <feDropShadow dx="0" dy="0" stdDeviation="6" flood-color="#000000" flood-opacity="0.12"/>
    </filter>
    <radialGradient id="svg33a149c6-universal-edge-vignette" cx="50%" cy="50%" r="72%">
      <stop offset="0%" stop-color="var(--background)" stop-opacity="0"/>
      <stop offset="72%" stop-color="var(--background)" stop-opacity="0.12"/>
      <stop offset="100%" stop-color="var(--primary-text)" stop-opacity="0.08"/>
    </radialGradient>
    <linearGradient id="svg33a149c6-universal-surface-sheen" x1="0%" y1="0%" x2="100%" y2="100%">
      <stop offset="0%" stop-color="var(--art-sheen)" stop-opacity="var(--art-sheen-opacity)"/>
      <stop offset="46%" stop-color="var(--art-sheen)" stop-opacity="0.035"/>
      <stop offset="100%" stop-color="var(--art-panel-tint)" stop-opacity="0.14"/>
    </linearGradient>
    <radialGradient id="svg33a149c6-universal-icon-aura" cx="50%" cy="42%" r="64%">
      <stop offset="0%" stop-color="var(--art-glow)" stop-opacity="var(--art-glow-opacity)"/>
      <stop offset="100%" stop-color="var(--background)" stop-opacity="0"/>
    </radialGradient>
    <filter id="svg33a149c6-text-glow" x="-20%" y="-20%" width="140%" height="140%">
      <feDropShadow dx="0" dy="0" stdDeviation="2" flood-color="#000000" flood-opacity="0.4"/>
    </filter>
    <marker id="svg33a149c6-arrowhead" markerWidth="10" markerHeight="7" refX="9" refY="3.5" orient="auto" markerUnits="strokeWidth">
      <polygon points="0 0, 10 3.5, 0 7" fill="var(--muted-text)" opacity="0.6"/>
    </marker>
  </defs>
  <rect width="100%" height="100%" fill="var(--background)" id="CANVAS_BG"/>
  <rect width="100%" height="100%" fill="url(#svg33a149c6-napkin-hatch)"/>
  <rect id="UNIVERSAL_EDGE_VIGNETTE" width="100%" height="100%" fill="url(#svg33a149c6-universal-edge-vignette)" opacity="0.62"/>
  <text id="TITLE" x="960.0" y="59" text-anchor="middle" font-weight="800" font-size="58" fill="#f1f5f9" style="font-size: 60px; font-family: Inter, Segoe UI, Kalam, Roboto, Helvetica, Arial, sans-serif; font-weight: 700; letter-spacing:-1.2px;" data-final-font-size="60">
    <tspan x="960.0" dy="68.00px">International AI Safety Report Findings</tspan>
  </text>
  <rect id="TITLE_FRAME" x="134" y="44" width="1652" height="110" fill="none"/>
  <g id="DIAGRAM_SCALER">
    <line x1="960" y1="220" x2="960" y2="970" stroke="var(--border)" stroke-width="8" stroke-linecap="round" opacity="0.75"/>
    <line x1="960" y1="289.2" x2="914" y2="289.2" stroke="var(--accent-1)" stroke-width="4" stroke-linecap="round" opacity="0.55"/>
    <circle cx="960" cy="289.2" r="9" fill="var(--accent-1)" opacity="0.95" filter="url(#svg33a149c6-soft-glow)"/>
    <rect id="ITEM_1_BG" x="254.0" y="228.0" width="660.0" height="122.4" rx="61.2" fill="var(--panel)" stroke="var(--accent-1)" stroke-width="3" filter="url(#svg33a149c6-shadow)"/>
    <rect x="894.0" y="228.0" width="20" height="122.4" rx="10" fill="var(--accent-1)" fill-opacity="0.14"/>
    <circle id="ITEM_1_PAD" cx="828.0" cy="289.2" r="42" fill="var(--icon-pad-bg)" stroke="var(--primary-text)" opacity="0.92" fill-opacity="0.9" stroke-width="2"/>
    <circle id="ITEM_1_PAD_INNER" cx="828.0" cy="289.2" r="32.76" fill="var(--accent-3)" fill-opacity="0.22"/>
    <circle cx="828.0" cy="289.2" r="33.6" fill="none" stroke="var(--accent-1)" stroke-width="3" stroke-dasharray="6 4"/>
    <g id="ITEM_1_ICON" transform="translate(802.0, 263.2)" data-icon-size="52" stroke-dasharray="6 4">
      <g transform="translate(-12.317499999999999,-11.439999999999998) scale(2.34)">
        <path d="M25.87 17.9C25.17 16.82 25.17 15.49 25.87 14.42C26.36 13.67 26.65 12.77 26.65 11.8C26.65 9.70005 25.02 7.87005 22.92 7.26005C21.97 6.98005 21.27 6.23005 20.94 5.30005C20.3 3.50005 18.47 1.99005 16.35 2.00005C14.32 2.01005 12.64 3.51005 11.92 5.26005C11.56 6.13005 10.82 6.84005 9.9 7.02005C7.63 7.48005 6 9.58005 6 11.74C6 12.71 6.29 13.6 6.78 14.36C7.48 15.44 7.48 16.77 6.78 17.84C6.29 18.59 6 19.49 6 20.46C6 22.62 7.5 24.7201 9.67 25.1901C10.55 25.3801 11.3 26.04 11.62 26.88C12.31 28.7 14.06 30 16.13 30C18.19 30 19.95 28.7 20.64 26.88C20.97 26.01 21.73 25.35 22.64 25.15C24.96 24.65 26.65 22.67 26.65 20.51C26.64 19.55 26.36 18.65 25.87 17.9Z" fill="#F9C23C"/>
        <path d="M21.8603 10.05C20.6379 7.24441 18.6122 5.41003 16.3201 5.41003C12.5866 5.41003 9.56006 10.2767 9.56006 16.28C9.56006 18.1786 9.86278 19.9636 10.3948 21.5168L18.4667 18.6608L21.8603 10.05Z" fill="#26EAFC"/>
        <path d="M16.32 27.15C20.05 27.15 23.08 22.28 23.08 16.28C23.08 13.96 22.63 11.81 21.86 10.05L10.4 21.51C11.55 24.87 13.77 27.15 16.32 27.15Z" fill="#B4F6FC"/>
      </g>
    </g>
    <text id="ITEM_1_HEAD" x="710.0" y="247.2" text-anchor="end" font-weight="bold" font-size="28" fill="var(--accent-3)" data-bg-id="ITEM_1_BG" fill-opacity="1.0" stroke="none" style="font-size: 30px; font-family: Inter, Segoe UI, Kalam, Roboto, Helvetica, Arial, sans-serif; font-weight: 700; letter-spacing:-0.4px;" data-final-font-size="30">
      <tspan x="710.0" dy="28.25px">Capability Failure</tspan>
    </text>
    <rect id="ITEM_1_HEAD_FRAME" x="290.0" y="247.2" width="420.0" height="40" fill="none"/>
    <text id="ITEM_1_BODY" x="710.0" y="291.2" text-anchor="end" font-size="20" fill="var(--primary-text)" data-bg-id="ITEM_1_BG" style="font-size: 26px; font-family: Inter, Segoe UI, Kalam, Roboto, Helvetica, Arial, sans-serif; font-weight: 400;" data-final-font-size="26">
      <tspan x="710.0" dy="20.84px">System fails because it is</tspan>
      <tspan x="710.0" dy="29.90px">confused or forgetful</tspan>
    </text>
    <rect id="ITEM_1_BODY_FRAME" x="290.0" y="291.2" width="420.0" height="60" fill="none"/>
    <line x1="960" y1="439.6" x2="1006" y2="439.6" stroke="var(--accent-2)" stroke-width="4" stroke-linecap="round" opacity="0.55"/>
    <circle cx="960" cy="439.6" r="9" fill="var(--accent-2)" opacity="0.95" filter="url(#svg33a149c6-soft-glow)"/>
    <rect id="ITEM_2_BG" x="1006.0" y="378.4" width="660.0" height="122.4" rx="61.2" fill="var(--panel)" stroke="var(--accent-2)" stroke-width="3" filter="url(#svg33a149c6-shadow)"/>
    <rect x="1006.0" y="378.4" width="20" height="122.4" rx="10" fill="var(--accent-2)" fill-opacity="0.14"/>
    <circle id="ITEM_2_PAD" cx="1092.0" cy="439.6" r="42" fill="var(--icon-pad-bg)" stroke="var(--primary-text)" opacity="0.92" fill-opacity="0.9" stroke-width="2"/>
    <circle id="ITEM_2_PAD_INNER" cx="1092.0" cy="439.6" r="32.76" fill="var(--accent-4)" fill-opacity="0.22"/>
    <circle cx="1092.0" cy="439.6" r="33.6" fill="none" stroke="var(--accent-2)" stroke-width="3" stroke-dasharray="6 4"/>
    <g id="ITEM_2_ICON" transform="translate(1066.0, 413.6)" data-icon-size="52" stroke-dasharray="6 4">
      <g transform="translate(-11.439999999999998,-11.439999999999998) scale(2.34)">
        <path d="M16.2483 4.52616C18.9098 1.83682 23.1163 1.14182 26.2861 3.18653C30.7219 6.03703 31.1805 12.1208 27.6817 15.6562C25.3721 17.9958 21.9577 18.5834 19.0921 17.421C17.6761 18.8362 15.9246 20.5894 15.5 21.0254C15.29 21.2354 14.92 21.3454 14.58 21.2454C14.17 21.1254 13.74 21.1254 13.28 21.2754C12.75 21.4554 12.39 22.0854 12.41 22.3755C12.45 23.0054 12.35 23.2754 12.07 23.5654C11.7883 23.861 11.4895 23.8921 11.1766 23.9247C10.812 23.9626 10.4282 24.0026 10.03 24.4655C9.62999 24.9354 9.55999 25.6454 9.69999 26.1754C9.77999 26.4854 9.67999 26.8554 9.39999 27.1354C8.89999 27.6354 7.54046 28.975 7.54046 28.975C6.51046 30.005 4.89046 30.315 3.63046 29.585C1.72046 28.485 1.49046 25.975 2.93046 24.535L14.6195 12.8546C14.5156 12.6025 14.4204 12.3411 14.3345 12.0704C13.4872 9.4113 14.2946 6.50036 16.2483 4.52616ZM23.8838 5.82551C23.1661 6.55073 23.1661 7.73927 23.8838 8.46449C24.6115 9.18971 25.7778 9.18971 26.4955 8.46449C27.2132 7.73927 27.2132 6.55073 26.4955 5.82551C25.7778 5.10029 24.6015 5.10029 23.8838 5.82551Z" fill="#F9C23C"/>
      </g>
    </g>
    <text id="ITEM_2_HEAD" x="1162.0" y="397.6" text-anchor="start" font-weight="bold" font-size="28" fill="var(--accent-4)" data-bg-id="ITEM_2_BG" fill-opacity="1.0" stroke="none" style="font-size: 30px; font-family: Inter, Segoe UI, Kalam, Roboto, Helvetica, Arial, sans-serif; font-weight: 700; letter-spacing:-0.4px;" data-final-font-size="30">
      <tspan x="1162.0" dy="28.25px">Objective Failure</tspan>
    </text>
    <rect id="ITEM_2_HEAD_FRAME" x="1162.0" y="397.6" width="420.0" height="40" fill="none"/>
    <text id="ITEM_2_BODY" x="1162.0" y="441.6" text-anchor="start" font-size="20" fill="var(--primary-text)" data-bg-id="ITEM_2_BG" style="font-size: 26px; font-family: Inter, Segoe UI, Kalam, Roboto, Helvetica, Arial, sans-serif; font-weight: 400;" data-final-font-size="26">
      <tspan x="1162.0" dy="20.84px">System remains capable</tspan>
      <tspan x="1162.0" dy="29.90px">but pursues wrong goal</tspan>
    </text>
    <rect id="ITEM_2_BODY_FRAME" x="1162.0" y="441.6" width="420.0" height="60" fill="none"/>
    <line x1="960" y1="590.0" x2="914" y2="590.0" stroke="var(--accent-3)" stroke-width="4" stroke-linecap="round" opacity="0.55"/>
    <circle cx="960" cy="590.0" r="9" fill="var(--accent-3)" opacity="0.95" filter="url(#svg33a149c6-soft-glow)"/>
    <rect id="ITEM_3_BG" x="254.0" y="528.8" width="660.0" height="122.4" rx="61.2" fill="var(--panel)" stroke="var(--accent-3)" stroke-width="3" filter="url(#svg33a149c6-shadow)"/>
    <rect x="894.0" y="528.8" width="20" height="122.4" rx="10" fill="var(--accent-3)" fill-opacity="0.14"/>
    <circle id="ITEM_3_PAD" cx="828.0" cy="590.0" r="42" fill="var(--icon-pad-bg)" stroke="var(--primary-text)" opacity="0.92" fill-opacity="0.9" stroke-width="2"/>
    <circle id="ITEM_3_PAD_INNER" cx="828.0" cy="590.0" r="32.76" fill="var(--accent-5)" fill-opacity="0.22"/>
    <circle cx="828.0" cy="590.0" r="33.6" fill="none" stroke="var(--accent-3)" stroke-width="3" stroke-dasharray="6 4"/>
    <g id="ITEM_3_ICON" transform="translate(802.0, 564.0)" data-icon-size="52" stroke-dasharray="6 4">
      <g transform="translate(-8.925950413223134,-8.384462809917354) scale(0.13537190082644626)" vector-effect="non-scaling-stroke" fill="#f1f5f9" fill-opacity="1.0" stroke="none">
        <path fill="#f1f5f9" d="m258.594 13.75l-8.03 13.438l-80.69 135.187l-8.436 14.125h58.997v208.75l-69.092-86.188l36.25-29l12.875-10.28l-15.407-5.75l-147.47-55.188l-14.656-5.47l2.125 15.5L46.5 364.845l2.25 16.28l12.844-10.28l30.062-24.03l116.75 145.842h32.656l-138.156-178.78l-40.125 32.093l-7.405-53.94c6.306 5.892 14.752 9.5 24.063 9.5c19.49 0 35.312-15.79 35.312-35.28c0-7.974-2.665-15.34-7.125-21.25l55.438 20.75l-45.563 36.47L248.72 472V157.812h-54.345l29.28-49.03c1.594 18.015 16.697 32.124 35.126 32.124c18.23 0 33.26-13.796 35.126-31.53l28.906 48.436h-55.406v317l133.5-172.718l-45.437-36.344l53.124-19.875a35.16 35.16 0 0 0-6.47 20.375c0 19.49 15.792 35.28 35.282 35.28c10.322 0 19.61-4.434 26.063-11.5l-7.69 55.94l-40.28-32.22l-138.25 178.906h32.78L426.814 346.75l30.125 24.094l12.875 10.28l2.218-16.28l21.44-155.97l2.124-15.5l-14.656 5.47L333.5 254.03l-15.406 5.75l12.844 10.283L367.125 299l-70.438 87.875V176.5h59.033l-8.44-14.125l-80.655-135.188l-8.03-13.437z" vector-effect="non-scaling-stroke" stroke="none"/>
      </g>
    </g>
    <text id="ITEM_3_HEAD" x="710.0" y="548.0" text-anchor="end" font-weight="bold" font-size="28" fill="var(--accent-5)" data-bg-id="ITEM_3_BG" fill-opacity="1.0" stroke="none" style="font-size: 30px; font-family: Inter, Segoe UI, Kalam, Roboto, Helvetica, Arial, sans-serif; font-weight: 700; letter-spacing:-0.4px;" data-final-font-size="30">
      <tspan x="710.0" dy="28.25px">Hidden Divergence</tspan>
    </text>
    <rect id="ITEM_3_HEAD_FRAME" x="290.0" y="548.0" width="420.0" height="40" fill="none"/>
    <text id="ITEM_3_BODY" x="710.0" y="592.0" text-anchor="end" font-size="20" fill="var(--primary-text)" data-bg-id="ITEM_3_BG" style="font-size: 26px; font-family: Inter, Segoe UI, Kalam, Roboto, Helvetica, Arial, sans-serif; font-weight: 400;" data-final-font-size="26">
      <tspan x="710.0" dy="20.84px">Humans do not immediately</tspan>
      <tspan x="710.0" dy="29.90px">recognize the problem</tspan>
    </text>
    <rect id="ITEM_3_BODY_FRAME" x="290.0" y="592.0" width="420.0" height="60" fill="none"/>
    <line x1="960" y1="740.4" x2="1006" y2="740.4" stroke="var(--accent-4)" stroke-width="4" stroke-linecap="round" opacity="0.55"/>
    <circle cx="960" cy="740.4" r="9" fill="var(--accent-4)" opacity="0.95" filter="url(#svg33a149c6-soft-glow)"/>
    <rect id="ITEM_4_BG" x="1006.0" y="679.2" width="660.0" height="122.4" rx="61.2" fill="var(--panel)" stroke="var(--accent-4)" stroke-width="3" filter="url(#svg33a149c6-shadow)"/>
    <rect x="1006.0" y="679.2" width="20" height="122.4" rx="10" fill="var(--accent-4)" fill-opacity="0.14"/>
    <circle id="ITEM_4_PAD" cx="1092.0" cy="740.4" r="42" fill="var(--icon-pad-bg)" stroke="var(--primary-text)" opacity="0.92" fill-opacity="0.9" stroke-width="2"/>
    <circle id="ITEM_4_PAD_INNER" cx="1092.0" cy="740.4" r="32.76" fill="var(--accent-6)" fill-opacity="0.22"/>
    <circle cx="1092.0" cy="740.4" r="33.6" fill="none" stroke="var(--accent-4)" stroke-width="3" stroke-dasharray="6 4"/>
    <g id="ITEM_4_ICON" transform="translate(1066.0, 714.4)" data-icon-size="52" stroke-dasharray="6 4">
      <g transform="translate(-9.536271186440676,-9.536271186440676) scale(2.9613559322033898)" vector-effect="non-scaling-stroke" stroke-width="2.34" stroke-linecap="round" stroke-linejoin="round" stroke-opacity="1.0">
        <path d="M12 6v6l4 2" vector-effect="non-scaling-stroke" fill="none" stroke="#f1f5f9"/>
        <circle cx="12" cy="12" r="10" vector-effect="non-scaling-stroke" fill="none" stroke="#f1f5f9"/>
      </g>
    </g>
    <text id="ITEM_4_HEAD" x="1162.0" y="698.4" text-anchor="start" font-weight="bold" font-size="28" fill="var(--accent-6)" data-bg-id="ITEM_4_BG" fill-opacity="1.0" stroke="none" style="font-size: 30px; font-family: Inter, Segoe UI, Kalam, Roboto, Helvetica, Arial, sans-serif; font-weight: 700; letter-spacing:-0.4px;" data-final-font-size="30">
      <tspan x="1162.0" dy="28.25px">Intervention Hard</tspan>
    </text>
    <rect id="ITEM_4_HEAD_FRAME" x="1162.0" y="698.4" width="420.0" height="40" fill="none"/>
    <text id="ITEM_4_BODY" x="1162.0" y="742.4" text-anchor="start" font-size="20" fill="var(--primary-text)" data-bg-id="ITEM_4_BG" style="font-size: 26px; font-family: Inter, Segoe UI, Kalam, Roboto, Helvetica, Arial, sans-serif; font-weight: 400;" data-final-font-size="26">
      <tspan x="1162.0" dy="20.84px">Failures unfold before humans</tspan>
      <tspan x="1162.0" dy="29.90px">notice them</tspan>
    </text>
    <rect id="ITEM_4_BODY_FRAME" x="1162.0" y="742.4" width="420.0" height="60" fill="none"/>
    <line x1="960" y1="890.8" x2="914" y2="890.8" stroke="var(--accent-5)" stroke-width="4" stroke-linecap="round" opacity="0.55"/>
    <circle cx="960" cy="890.8" r="9" fill="var(--accent-5)" opacity="0.95" filter="url(#svg33a149c6-soft-glow)"/>
    <rect id="ITEM_5_BG" x="254.0" y="829.6" width="660.0" height="122.4" rx="61.2" fill="var(--panel)" stroke="var(--accent-5)" stroke-width="3" filter="url(#svg33a149c6-shadow)"/>
    <rect x="894.0" y="829.6" width="20" height="122.4" rx="10" fill="var(--accent-5)" fill-opacity="0.14"/>
    <circle id="ITEM_5_PAD" cx="828.0" cy="890.8" r="42" fill="var(--icon-pad-bg)" stroke="var(--primary-text)" opacity="0.92" fill-opacity="0.9" stroke-width="2"/>
    <circle id="ITEM_5_PAD_INNER" cx="828.0" cy="890.8" r="32.76" fill="var(--accent-1)" fill-opacity="0.22"/>
    <circle cx="828.0" cy="890.8" r="33.6" fill="none" stroke="var(--accent-5)" stroke-width="3" stroke-dasharray="6 4"/>
    <g id="ITEM_5_ICON" transform="translate(802.0, 864.8)" data-icon-size="52" stroke-dasharray="6 4">
      <g transform="translate(-8.98101694915254,-11.757288135593221) scale(0.1388135593220339)" vector-effect="non-scaling-stroke" fill="#f1f5f9" fill-opacity="1.0" stroke="none">
        <path fill="#f1f5f9" d="M93.773 44.664L68.55 57.39l37.313 81.938zm90.24 22.76L143.274 150.3l65.317-63.21l-24.58-19.666zM18.16 125.832l10.63 26.8l45.698 5.903zm91.897 27.463c-3.665.025-7.122.8-10.256 2.295c-17.278 8.244-21.157 36.154-8.663 62.34c6.016 12.59 15.09 23.08 25.218 29.158c-10.305 83.743 29.287 137.784 91.366 163.535c-6.917 35.032-33.276 60.587-61.855 84.023l93.987 2.895l-9.897-9.165l-42.893-7.88c33.39-22.314 45.968-38.168 56.854-71.397c-5.27-10.354-18.877-24.948-25.432-35.895c19.945 2.308 49.183 5.725 53.745 10.135c3.78 9.84 21.27 31.79 27.754 59.832l6.336 20.523l49.205-46.476l-2.654-10.328l-39.57 26.59c.868-28.203-11.48-65.273-22.79-77.613c0 0-28.852-17.656-78.207-24.197c-23.798-16.76-36.016-42.392-45.87-60.483l51.965 3.803l80.844-9.424s2.82 2.165 6.457 4.72c5.99 9.605 16.65 16.048 28.718 16.048c15.646 0 28.932-10.82 32.732-25.334H486v-18H366.857c-4.145-13.994-17.165-24.31-32.44-24.31c-10.23 0-19.447 4.632-25.667 11.894c-1.853-.17-3.7-.344-5.45-.605l-9.023 13.026l-75.072 6.48l-63.6-9c7.833-12.96 7.088-33.54-1.896-52.412c-9.92-20.788-27.617-34.888-43.653-34.78zm224.36 83.394c8.846 0 15.825 6.976 15.825 15.822s-6.98 15.822-15.824 15.822c-2.576 0-4.986-.606-7.12-1.664c2.146-10.544-.162-23.4-1.073-27.73a15.9 15.9 0 0 1 8.193-2.25zM384 384l-32 112h128V384z" vector-effect="non-scaling-stroke" stroke="none"/>
      </g>
    </g>
    <text id="ITEM_5_HEAD" x="710.0" y="848.8" text-anchor="end" font-weight="bold" font-size="28" fill="var(--accent-1)" data-bg-id="ITEM_5_BG" fill-opacity="1.0" stroke="none" style="font-size: 30px; font-family: Inter, Segoe UI, Kalam, Roboto, Helvetica, Arial, sans-serif; font-weight: 700; letter-spacing:-0.4px;" data-final-font-size="30">
      <tspan x="710.0" dy="28.25px">Competing Incentives</tspan>
    </text>
    <rect id="ITEM_5_HEAD_FRAME" x="290.0" y="848.8" width="420.0" height="40" fill="none"/>
    <text id="ITEM_5_BODY" x="710.0" y="892.8" text-anchor="end" font-size="20" fill="var(--primary-text)" data-bg-id="ITEM_5_BG" style="font-size: 26px; font-family: Inter, Segoe UI, Kalam, Roboto, Helvetica, Arial, sans-serif; font-weight: 400;" data-final-font-size="26">
      <tspan x="710.0" dy="20.84px">Pressures alter behaviour even</tspan>
      <tspan x="710.0" dy="29.90px">when goal stays same</tspan>
    </text>
    <rect id="ITEM_5_BODY_FRAME" x="290.0" y="892.8" width="420.0" height="60" fill="none"/>
  </g>
</svg>
