<?xml version='1.0' encoding='utf-8'?>
<svg xmlns="http://www.w3.org/2000/svg" width="1920" height="1080" viewBox="0 0 1920 1080" data-theme="dark">
  <style>
        @font-face {
            font-family: 'Inter';
            src: url('assets/fonts/Inter-Regular.ttf') format('truetype');
            font-weight: 400;
            font-style: normal;
            font-display: swap;
        }
        @font-face {
            font-family: 'Inter';
            src: url('assets/fonts/Inter-Bold.ttf') format('truetype');
            font-weight: 600;
            font-style: normal;
            font-display: swap;
        }
        @font-face {
            font-family: 'Inter';
            src: url('assets/fonts/Inter-Bold.ttf') format('truetype');
            font-weight: 800;
            font-style: normal;
            font-display: swap;
        }
        
:root {
    --background: #0f172a;
    --panel: #1e293b;
    --primary-text: #f1f5f9;
    --muted-text: #94a3b8;
    --inverse-text: #0f172a;
    --border: #334155;
    --shadow-color: #000000;
    --icon-pad-bg: #1e293b;
    --art-glow: #7dd3fc;
    --art-glow-opacity: 0.18;
    --art-sheen: #ffffff;
    --art-sheen-opacity: 0.18;
    --art-shadow: #000000;
    --art-shadow-opacity: 0.28;
    --art-muted-line: #64748b;
    --art-panel-tint: #1e293b;
    --font-family: 'Inter', 'Segoe UI', 'Kalam', Roboto, Helvetica, Arial, sans-serif;
    --radius-xl: 16px;
    --font-family-headline: 'Inter', 'Segoe UI', 'Kalam', Roboto, Helvetica, Arial, sans-serif;
    --font-family-body: 'Inter', 'Segoe UI', 'Kalam', Roboto, Helvetica, Arial, sans-serif;
    --font-heading: 'Inter', 'Segoe UI', 'Kalam', Roboto, Helvetica, Arial, sans-serif;
    --font-body: 'Inter', 'Segoe UI', 'Kalam', Roboto, Helvetica, Arial, sans-serif;
    --font-size-h1: 56px;
    --font-size-h2: 40px;
    --font-size-h3: 28px;
    --font-size-body: 24px;
    --font-size-caption: 18px;
    --secondary-text: var(--muted-text);
    --panel-border: var(--border);
    --font-weight-normal: 400;
    --font-weight-medium: 500;
    --font-weight-semibold: 600;
    --font-weight-bold: 700;
    --spacing-gutter-pct: 0.07;
    --spacing-top-pct: 0.15;
    --spacing-bottom-pct: 0.07;
    --spacing-title-y-pct: 0.055;
    --accent-1: #a5b4fc;
    --accent-2: #34d399;
    --accent-3: #f472b6;
    --accent-4: #fbbf24;
    --accent-5: #38bdf8;
    --accent-6: #c084fc;
    --accent-7: #f87171;
    --accent-8: #2dd4bf;
    --accent-9: #fb923c;
    --accent-10: #e879f9;
}
:root[data-theme="dark"] {
    --background: #0f172a;
    --panel: #1e293b;
    --primary-text: #f1f5f9;
    --muted-text: #94a3b8;
    --inverse-text: #0f172a;
    --border: #334155;
    --shadow-color: #000000;
    --icon-pad-bg: #1e293b;
    --art-glow: #7dd3fc;
    --art-glow-opacity: 0.18;
    --art-sheen: #ffffff;
    --art-sheen-opacity: 0.18;
    --art-shadow: #000000;
    --art-shadow-opacity: 0.28;
    --art-muted-line: #64748b;
    --art-panel-tint: #1e293b;
    --accent-1: #a5b4fc;
    --accent-2: #34d399;
    --accent-3: #f472b6;
    --accent-4: #fbbf24;
    --accent-5: #38bdf8;
    --accent-6: #c084fc;
    --accent-7: #f87171;
    --accent-8: #2dd4bf;
    --accent-9: #fb923c;
    --accent-10: #e879f9;
}
:root[data-theme="light"] {
    --background: #f8fafc;
    --panel: #ffffff;
    --primary-text: #0f172a;
    --muted-text: #64748b;
    --inverse-text: #ffffff;
    --border: #e2e8f0;
    --shadow-color: #000000;
    --icon-pad-bg: #1e293b;
    --art-glow: #0891b2;
    --art-glow-opacity: 0.10;
    --art-sheen: #ffffff;
    --art-sheen-opacity: 0.34;
    --art-shadow: #0f172a;
    --art-shadow-opacity: 0.14;
    --art-muted-line: #94a3b8;
    --art-panel-tint: #f1f5f9;
    --accent-1: #4f46e5;
    --accent-2: #059669;
    --accent-3: #db2777;
    --accent-4: #d97706;
    --accent-5: #0284c7;
    --accent-6: #7c3aed;
    --accent-7: #dc2626;
    --accent-8: #0d9488;
    --accent-9: #ea580c;
    --accent-10: #c026d3;
}</style>
  <rect x="0" y="0" width="1.92E+3" height="1.08E+3" fill="#252a34" stroke="none" id="programmatic_background"/>
  <line id="HEADER_DECOR" x1="960.0" x2="1080.0" y1="125.0" y2="125.0" stroke="var(--accent-1)" stroke-width="6" stroke-linecap="round"/>
  <defs>
    <pattern id="svgc0473b03-napkin-hatch" patternUnits="userSpaceOnUse" width="12" height="12">
      <path d="M -3 12 L 12 -3 M 0 15 L 15 0" fill="none" stroke="var(--primary-text)" stroke-width="1" stroke-opacity="0.05"/>
    </pattern>
    <filter id="svgc0473b03-soft-shadow" x="-30%" y="-30%" width="160%" height="160%">
      <feDropShadow dx="0" dy="4" stdDeviation="10" flood-color="#000000" flood-opacity="0.2"/>
    </filter>
    <radialGradient id="svgc0473b03-universal-edge-vignette" cx="50%" cy="50%" r="72%">
      <stop offset="0%" stop-color="var(--background)" stop-opacity="0"/>
      <stop offset="72%" stop-color="var(--background)" stop-opacity="0.12"/>
      <stop offset="100%" stop-color="var(--primary-text)" stop-opacity="0.08"/>
    </radialGradient>
    <linearGradient id="svgc0473b03-universal-surface-sheen" x1="0%" y1="0%" x2="100%" y2="100%">
      <stop offset="0%" stop-color="var(--art-sheen)" stop-opacity="var(--art-sheen-opacity)"/>
      <stop offset="46%" stop-color="var(--art-sheen)" stop-opacity="0.035"/>
      <stop offset="100%" stop-color="var(--art-panel-tint)" stop-opacity="0.14"/>
    </linearGradient>
    <radialGradient id="svgc0473b03-universal-icon-aura" cx="50%" cy="42%" r="64%">
      <stop offset="0%" stop-color="var(--art-glow)" stop-opacity="var(--art-glow-opacity)"/>
      <stop offset="100%" stop-color="var(--background)" stop-opacity="0"/>
    </radialGradient>
    <linearGradient id="svgc0473b03-comparison-card-depth" x1="0%" y1="0%" x2="0%" y2="100%">
      <stop offset="0%" stop-color="var(--art-sheen)" stop-opacity="0.30"/>
      <stop offset="55%" stop-color="var(--art-sheen)" stop-opacity="0.035"/>
      <stop offset="100%" stop-color="var(--art-shadow)" stop-opacity="0.10"/>
    </linearGradient>
    <filter id="svgc0473b03-text-glow" x="-20%" y="-20%" width="140%" height="140%">
      <feDropShadow dx="0" dy="0" stdDeviation="2" flood-color="#000000" flood-opacity="0.4"/>
    </filter>
    <filter id="svgc0473b03-shadow" x="-30%" y="-30%" width="160%" height="160%">
      <feDropShadow dx="0" dy="2" stdDeviation="3" flood-color="#000000" flood-opacity="0.08"/>
      <feDropShadow dx="0" dy="6" stdDeviation="10" flood-color="#000000" flood-opacity="0.12"/>
    </filter>
    <marker id="svgc0473b03-arrowhead" markerWidth="10" markerHeight="7" refX="9" refY="3.5" orient="auto" markerUnits="strokeWidth">
      <polygon points="0 0, 10 3.5, 0 7" fill="var(--muted-text)" opacity="0.6"/>
    </marker>
  </defs>
  <rect id="CANVAS_BG" width="100%" height="100%" fill="var(--background)"/>
  <rect width="100%" height="100%" fill="url(#svgc0473b03-napkin-hatch)"/>
  <rect id="UNIVERSAL_EDGE_VIGNETTE" width="100%" height="100%" fill="url(#svgc0473b03-universal-edge-vignette)" opacity="0.62"/>
  <text id="TITLE" x="960.0" y="59" text-anchor="middle" font-size="60" font-weight="800" fill="#f1f5f9" style="font-size: 60px; font-family: Inter, Segoe UI, Kalam, Roboto, Helvetica, Arial, sans-serif; font-weight: 700; letter-spacing:-1.2px;" data-final-font-size="60">
    <tspan x="960.0" dy="68.00px">2023 Survey Findings</tspan>
  </text>
  <rect id="TITLE_FRAME" x="134" y="59" width="1652" height="103" fill="none"/>
  <rect x="110" y="180" width="1700" height="770" rx="38" fill="var(--panel)" fill-opacity="0.28" stroke="var(--muted-text)" stroke-width="2" opacity="0.92"/>
  <line x1="960" y1="225" x2="960" y2="545" stroke="var(--muted-text)" stroke-width="4" stroke-dasharray="10 10" opacity="0.35"/>
  <rect x="878" y="370" width="164" height="34" rx="17" fill="var(--background)" stroke="var(--muted-text)" stroke-width="2" opacity="0.9"/>
  <text x="960" y="394" text-anchor="middle" font-size="20" font-weight="700" fill="var(--primary-text)">Tradeoffs</text>
  <g filter="url(#svgc0473b03-soft-shadow)">
    <rect id="ITEM_1_BG" x="150" y="230" width="700" height="300" rx="30" fill="var(--panel)" fill-opacity="0.97" stroke="var(--accent-1)" stroke-width="3"/>
    <rect x="150" y="230" width="700" height="18" rx="9" fill="var(--accent-1)" fill-opacity="0.55"/>
    <rect x="392" y="258" width="380" height="34" rx="17" fill="var(--accent-1)" fill-opacity="0.12"/>
    <circle id="ITEM_1_PAD" cx="250" cy="322" r="52" fill="var(--icon-pad-bg)" opacity="0.95" fill-opacity="0.9" stroke-width="2" stroke="var(--primary-text)"/>
    <circle id="ITEM_1_PAD_INNER" cx="250" cy="322" r="40.56" fill="var(--accent-8)" fill-opacity="0.22"/>
    <circle cx="250" cy="322" r="42" fill="none" stroke="var(--accent-1)" stroke-width="3" stroke-dasharray="6 4"/>
    <g id="ITEM_1_ICON" transform="translate(212, 284)" data-icon-size="76" stroke-dasharray="6 4">
      <g transform="translate(-5.997288135593223,-5.997288135593223) scale(3.666440677966102)" vector-effect="non-scaling-stroke" stroke-width="2.62" stroke-linecap="round" stroke-linejoin="round" stroke-opacity="1.0">
        <rect width="14" height="8" x="5" y="2" rx="2" vector-effect="non-scaling-stroke" fill="none" stroke="#f1f5f9"/>
        <rect width="20" height="8" x="2" y="14" rx="2" vector-effect="non-scaling-stroke" fill="none" stroke="#f1f5f9"/>
        <path d="M6 18h2" vector-effect="non-scaling-stroke" fill="none" stroke="#f1f5f9"/>
        <path d="M12 18h6" vector-effect="non-scaling-stroke" fill="none" stroke="#f1f5f9"/>
      </g>
    </g>
    <rect id="ITEM_1_TEXT_BG" x="330.0" y="266.0" width="468.0" height="226.0" rx="22" fill="var(--panel)" fill-opacity="0.94" stroke="var(--primary-text)" stroke-opacity="0.12" stroke-width="1.5"/>
    <rect id="COMPARISON_COLUMNS_ART_PANEL_SHEEN_1" x="330.0" y="266.0" width="468.0" height="226.0" rx="16" fill="var(--accent-8)" opacity="0.82" fill-opacity="0.15" stroke="none"/>
    <text id="ITEM_1_HEAD" x="564.0" y="282.0" text-anchor="middle" font-size="32" font-weight="800" fill="var(--primary-text)" data-bg-id="ITEM_1_TEXT_BG" fill-opacity="1.0" stroke="none" style="font-size: 30px; font-family: Inter, Segoe UI, Kalam, Roboto, Helvetica, Arial, sans-serif; font-weight: 700; letter-spacing:-0.4px;" data-final-font-size="30">
      <tspan x="564.0" dy="40.49px">Superhuman AI</tspan>
    </text>
    <rect id="ITEM_1_HEAD_FRAME" x="364" y="282" width="400" height="52" fill="none"/>
    <text id="ITEM_1_BODY" x="564.0" y="340.0" text-anchor="middle" font-size="19" fill="var(--primary-text)" data-bg-id="ITEM_1_TEXT_BG" style="font-size: 26px; font-family: Inter, Segoe UI, Kalam, Roboto, Helvetica, Arial, sans-serif; font-weight: 400;" data-final-font-size="26">
      <tspan x="564.0" dy="48.55px">10% chance by 2027, 50% chance by 2047</tspan>
    </text>
    <rect id="ITEM_1_BODY_FRAME" x="350" y="340" width="428" height="136" fill="none"/>
  </g>
  <g filter="url(#svgc0473b03-soft-shadow)">
    <rect id="ITEM_2_BG" x="1070" y="230" width="700" height="300" rx="30" fill="var(--panel)" fill-opacity="0.97" stroke="var(--accent-2)" stroke-width="3"/>
    <rect x="1070" y="230" width="700" height="18" rx="9" fill="var(--accent-2)" fill-opacity="0.55"/>
    <rect x="1312" y="258" width="380" height="34" rx="17" fill="var(--accent-2)" fill-opacity="0.12"/>
    <circle id="ITEM_2_PAD" cx="1170" cy="322" r="52" fill="var(--icon-pad-bg)" opacity="0.95" fill-opacity="0.9" stroke-width="2" stroke="var(--primary-text)"/>
    <circle id="ITEM_2_PAD_INNER" cx="1170" cy="322" r="40.56" fill="var(--accent-9)" fill-opacity="0.22"/>
    <circle cx="1170" cy="322" r="42" fill="none" stroke="var(--accent-2)" stroke-width="3" stroke-dasharray="6 4"/>
    <g id="ITEM_2_ICON" transform="translate(1132, 284)" data-icon-size="76" stroke-dasharray="6 4">
      <g transform="translate(-5.241652892561985,-4.9064462809917355) scale(2.6816528925619836)">
        <path d="M16.0278 1C7.74582 1 1.02777 7.71514 1.02777 15.995C1.02777 18.7681 1.78997 20.7383 3.31443 22.0278C4.57567 23.0948 6.23271 23.5821 8.02777 23.8128V28.0007C8.02777 29.6529 9.37582 31 11.0278 31C12.069 31 12.9895 30.4649 13.5278 29.6554C14.0661 30.4649 14.9866 31 16.0278 31C17.069 31 17.9895 30.4649 18.5278 29.6554C19.0661 30.4649 19.9866 31 21.0278 31C22.6797 31 24.0278 29.6529 24.0278 28.0007V23.811C25.8222 23.5772 27.4794 23.0901 28.7407 22.0245C30.2654 20.7362 31.0278 18.7683 31.0278 15.995C31.0278 7.71514 24.3097 1 16.0278 1Z" fill="#9B9B9B"/>
        <path d="M16.0278 2C8.29777 2 2.02777 8.26776 2.02777 15.995C2.02777 21.1732 4.84777 22.5627 9.02777 22.9125V28.0007C9.02777 29.1003 9.92777 30 11.0278 30C12.1278 30 13.0278 29.1003 13.0278 28.0007V25.4918C13.0278 25.2156 13.2516 24.9918 13.5278 24.9918C13.8039 24.9918 14.0278 25.2156 14.0278 25.4918V28.0007C14.0278 29.1003 14.9278 30 16.0278 30C17.1278 30 18.0278 29.1003 18.0278 28.0007V25.4918C18.0278 25.2156 18.2516 24.9918 18.5278 24.9918C18.8039 24.9918 19.0278 25.2156 19.0278 25.4918V28.0007C19.0278 29.1003 19.9278 30 21.0278 30C22.1278 30 23.0278 29.1003 23.0278 28.0007V22.9125C27.2078 22.5527 30.0278 21.1732 30.0278 15.995C30.0278 8.26776 23.7578 2 16.0278 2Z" fill="white"/>
        <path d="M14 16.7617C14 19.3928 11.9866 20 9.5 20C7.01342 20 5 19.3928 5 16.7617C5 14.1305 7.01342 12 9.5 12C11.9866 12 14 14.1305 14 16.7617Z" fill="#402A32"/>
        <path d="M27 16.7617C27 19.3928 24.9866 20 22.5 20C20.0134 20 18 19.3928 18 16.7617C18 14.1305 20.0134 12 22.5 12C24.9866 12 27 14.1305 27 16.7617Z" fill="#402A32"/>
        <path d="M15.01 21.97H16.98C17.48 21.97 17.83 21.48 17.66 21.01L17.29 19.93C17.1 19.37 16.58 19 15.99 19C15.4 19 14.87 19.38 14.68 19.93L14.32 21.01C14.16 21.48 14.51 21.97 15.01 21.97Z" fill="#402A32"/>
      </g>
    </g>
    <rect id="ITEM_2_TEXT_BG" x="1250.0" y="266.0" width="468.0" height="226.0" rx="22" fill="var(--panel)" fill-opacity="0.94" stroke="var(--primary-text)" stroke-opacity="0.12" stroke-width="1.5"/>
    <rect id="COMPARISON_COLUMNS_ART_PANEL_SHEEN_2" x="1250.0" y="266.0" width="468.0" height="226.0" rx="16" fill="var(--accent-9)" opacity="0.82" fill-opacity="0.15" stroke="none"/>
    <text id="ITEM_2_HEAD" x="1484.0" y="282.0" text-anchor="middle" font-size="32" font-weight="800" fill="var(--primary-text)" data-bg-id="ITEM_2_TEXT_BG" fill-opacity="1.0" stroke="none" style="font-size: 30px; font-family: Inter, Segoe UI, Kalam, Roboto, Helvetica, Arial, sans-serif; font-weight: 700; letter-spacing:-0.4px;" data-final-font-size="30">
      <tspan x="1484.0" dy="40.49px">Catastrophic Risk</tspan>
    </text>
    <rect id="ITEM_2_HEAD_FRAME" x="1284" y="282" width="400" height="52" fill="none"/>
    <text id="ITEM_2_BODY" x="1484.0" y="340.0" text-anchor="middle" font-size="19" fill="var(--primary-text)" data-bg-id="ITEM_2_TEXT_BG" style="font-size: 26px; font-family: Inter, Segoe UI, Kalam, Roboto, Helvetica, Arial, sans-serif; font-weight: 400;" data-final-font-size="26">
      <tspan x="1484.0" dy="42.57px">38% to 51% assign at least 10% chance</tspan>
      <tspan x="1484.0" dy="29.90px">to extinction</tspan>
    </text>
    <rect id="ITEM_2_BODY_FRAME" x="1270" y="340" width="428" height="136" fill="none"/>
  </g>
  <g filter="url(#svgc0473b03-soft-shadow)">
    <rect id="ITEM_3_BG" x="150" y="610" width="470" height="270" rx="26" fill="var(--panel)" fill-opacity="0.97" stroke="var(--accent-3)" stroke-width="3"/>
    <rect x="150" y="610" width="470" height="16" rx="8" fill="var(--accent-3)" fill-opacity="0.55"/>
    <rect x="280" y="646" width="260" height="26" rx="13" fill="var(--accent-3)" fill-opacity="0.12"/>
    <circle id="ITEM_3_PAD" cx="228" cy="692" r="46" fill="var(--icon-pad-bg)" opacity="0.95" fill-opacity="0.9" stroke-width="2" stroke="var(--primary-text)"/>
    <circle id="ITEM_3_PAD_INNER" cx="228" cy="692" r="35.88" fill="var(--accent-10)" fill-opacity="0.22"/>
    <circle cx="228" cy="692" r="37" fill="none" stroke="var(--accent-3)" stroke-width="3" stroke-dasharray="6 4"/>
    <g id="ITEM_3_ICON" transform="translate(194, 658)" data-icon-size="68" stroke-dasharray="6 4">
      <g transform="translate(-4.920677966101698,-4.920677966101698) scale(0.15203389830508476)" vector-effect="non-scaling-stroke" fill="#f1f5f9" fill-opacity="1.0" stroke="none">
        <path fill="#f1f5f9" d="M23 23v466h466v-18H41v-82.184l85.854-57.234l70.023 70.022l65.133-260.536L387.28 203.7l67.79-107.97l19.317 11.858l6.102-71.1l-60.644 37.616l19.884 12.207l-59.01 93.99l-130.732-65.366l-62.865 251.462l-57.98-57.978L41 367.184V23z" vector-effect="non-scaling-stroke" stroke="none"/>
      </g>
    </g>
    <rect id="ITEM_3_TEXT_BG" x="268.0" y="690.0" width="326.0" height="186.0" rx="22" fill="var(--panel)" fill-opacity="0.94" stroke="var(--primary-text)" stroke-opacity="0.12" stroke-width="1.5"/>
    <rect id="COMPARISON_COLUMNS_ART_PANEL_SHEEN_3" x="268.0" y="690.0" width="326.0" height="186.0" rx="16" fill="var(--accent-10)" opacity="0.82" fill-opacity="0.15" stroke="none"/>
    <text id="ITEM_3_HEAD" x="431.0" y="706.0" text-anchor="middle" font-size="28" font-weight="800" fill="var(--primary-text)" data-bg-id="ITEM_3_TEXT_BG" fill-opacity="1.0" stroke="none" style="font-size: 30px; font-family: Inter, Segoe UI, Kalam, Roboto, Helvetica, Arial, sans-serif; font-weight: 700; letter-spacing:-0.4px;" data-final-font-size="30">
      <tspan x="431.0" dy="38.01px">Median Estimate</tspan>
    </text>
    <rect id="ITEM_3_HEAD_FRAME" x="296" y="706" width="270" height="48" fill="none"/>
    <text id="ITEM_3_BODY" x="431.0" y="754.0" text-anchor="middle" font-size="18" fill="var(--primary-text)" data-bg-id="ITEM_3_TEXT_BG" style="font-size: 26px; font-family: Inter, Segoe UI, Kalam, Roboto, Helvetica, Arial, sans-serif; font-weight: 400;" data-final-font-size="26">
      <tspan x="431.0" dy="31.63px">Respondents estimate</tspan>
      <tspan x="431.0" dy="29.90px">extinction-like outcomes</tspan>
      <tspan x="431.0" dy="29.90px">around 5%</tspan>
    </text>
    <rect id="ITEM_3_BODY_FRAME" x="286" y="754" width="290" height="116" fill="none"/>
  </g>
  <g filter="url(#svgc0473b03-soft-shadow)">
    <rect id="ITEM_4_BG" x="725" y="610" width="470" height="270" rx="26" fill="var(--panel)" fill-opacity="0.97" stroke="var(--accent-4)" stroke-width="3"/>
    <rect x="725" y="610" width="470" height="16" rx="8" fill="var(--accent-4)" fill-opacity="0.55"/>
    <rect x="855" y="646" width="260" height="26" rx="13" fill="var(--accent-4)" fill-opacity="0.12"/>
    <circle id="ITEM_4_PAD" cx="803" cy="692" r="46" fill="var(--icon-pad-bg)" opacity="0.95" fill-opacity="0.9" stroke-width="2" stroke="var(--primary-text)"/>
    <circle id="ITEM_4_PAD_INNER" cx="803" cy="692" r="35.88" fill="var(--accent-1)" fill-opacity="0.22"/>
    <circle cx="803" cy="692" r="37" fill="none" stroke="var(--accent-4)" stroke-width="3" stroke-dasharray="6 4"/>
    <g id="ITEM_4_ICON" transform="translate(769, 658)" data-icon-size="68" stroke-dasharray="6 4">
      <g transform="translate(-6.960353982300888,-6.642831858407086) scale(2.540176991150443)">
        <path d="M5 3.5C5 4.15311 4.5826 4.70873 4 4.91465V12L6.16075 17.4867L4 23C2.9 23 2 22.1008 2 21.0018V13.9982C2 13.2625 2.40334 12.6163 3 12.2695V4.91465C2.4174 4.70873 2 4.15311 2 3.5C2 2.67157 2.67157 2 3.5 2C4.32843 2 5 2.67157 5 3.5Z" fill="#F8312F"/>
        <path d="M30.0499 3.55C30.0499 4.23107 29.6107 4.80955 29 5.01757V12.1998C29.5967 12.5469 30 13.1937 30 13.9301V20.9401C30 22.0401 29.1 22.9401 28 22.9401L25.0595 17.2609L28 11.9301L28 5.0176C27.3893 4.80961 26.95 4.23111 26.95 3.55C26.95 2.69396 27.6439 2 28.5 2C29.356 2 30.0499 2.69396 30.0499 3.55Z" fill="#F8312F"/>
        <path d="M11 4.5C11 3.67157 11.6716 3 12.5 3H19.5C20.3284 3 21 3.67157 21 4.5C21 5.17932 20.5484 5.75317 19.9291 5.93774C19.6526 6.02012 19.3595 6.04161 19.0829 6.12355L16.0299 7.02792L12.9108 6.11964C12.6383 6.04028 12.3501 6.01951 12.0777 5.93974C11.4549 5.75736 11 5.1818 11 4.5Z" fill="#FFB02E"/>
        <path d="M22.05 30H9.95C6.66 30 4 27.34 4 24.05V12.03C4 8.7 6.7 6 10.03 6H21.98C25.3 6 28 8.7 28 12.03V24.06C28 27.34 25.34 30 22.05 30Z" fill="#CDC4D6"/>
        <path d="M9.24738 18.5H22.7526C25.0822 18.5 27 16.581 27 14.25C27 11.909 25.0922 10 22.7526 10H9.24738C6.9078 10 5 11.909 5 14.25C5 16.591 6.9078 18.5 9.24738 18.5Z" fill="#212121"/>
        <path d="M13.4718 26H18.5282C19.3392 26 20 25.3265 20 24.5C20 23.6735 19.3392 23 18.5282 23H13.4718C12.6608 23 12 23.6735 12 24.5C12 25.3265 12.6608 26 13.4718 26Z" fill="#212121"/>
        <path d="M10.25 12C9.55964 12 9 12.5596 9 13.25V15.75C9 16.4404 9.55964 17 10.25 17C10.9404 17 11.5 16.4404 11.5 15.75V13.25C11.5 12.5596 10.9404 12 10.25 12Z" fill="#00A6ED"/>
        <path d="M21.75 12C21.0596 12 20.5 12.5596 20.5 13.25V15.75C20.5 16.4404 21.0596 17 21.75 17C22.4404 17 23 16.4404 23 15.75V13.25C23 12.5596 22.4404 12 21.75 12Z" fill="#00A6ED"/>
      </g>
    </g>
    <rect id="ITEM_4_TEXT_BG" x="843.0" y="690.0" width="326.0" height="186.0" rx="22" fill="var(--panel)" fill-opacity="0.94" stroke="var(--primary-text)" stroke-opacity="0.12" stroke-width="1.5"/>
    <rect id="COMPARISON_COLUMNS_ART_PANEL_SHEEN_4" x="843.0" y="690.0" width="326.0" height="186.0" rx="16" fill="var(--accent-1)" opacity="0.82" fill-opacity="0.15" stroke="none"/>
    <text id="ITEM_4_HEAD" x="1006.0" y="706.0" text-anchor="middle" font-size="28" font-weight="800" fill="var(--primary-text)" data-bg-id="ITEM_4_TEXT_BG" fill-opacity="1.0" stroke="none" style="font-size: 30px; font-family: Inter, Segoe UI, Kalam, Roboto, Helvetica, Arial, sans-serif; font-weight: 700; letter-spacing:-0.4px;" data-final-font-size="30">
      <tspan x="1006.0" dy="38.01px">Capability Updates</tspan>
    </text>
    <rect id="ITEM_4_HEAD_FRAME" x="871" y="706" width="270" height="48" fill="none"/>
    <text id="ITEM_4_BODY" x="1006.0" y="754.0" text-anchor="middle" font-size="18" fill="var(--primary-text)" data-bg-id="ITEM_4_TEXT_BG" style="font-size: 26px; font-family: Inter, Segoe UI, Kalam, Roboto, Helvetica, Arial, sans-serif; font-weight: 400;" data-final-font-size="26">
      <tspan x="1006.0" dy="31.63px">GPT-4 release shortened</tspan>
      <tspan x="1006.0" dy="29.90px">expected time lines</tspan>
      <tspan x="1006.0" dy="29.90px">for transformative AI</tspan>
    </text>
    <rect id="ITEM_4_BODY_FRAME" x="861" y="754" width="290" height="116" fill="none"/>
  </g>
  <g filter="url(#svgc0473b03-soft-shadow)">
    <rect id="ITEM_5_BG" x="1300" y="610" width="470" height="270" rx="26" fill="var(--panel)" fill-opacity="0.97" stroke="var(--accent-5)" stroke-width="3"/>
    <rect x="1300" y="610" width="470" height="16" rx="8" fill="var(--accent-5)" fill-opacity="0.55"/>
    <rect x="1430" y="646" width="260" height="26" rx="13" fill="var(--accent-5)" fill-opacity="0.12"/>
    <circle id="ITEM_5_PAD" cx="1378" cy="692" r="46" fill="var(--icon-pad-bg)" opacity="0.95" fill-opacity="0.9" stroke-width="2" stroke="var(--primary-text)"/>
    <circle id="ITEM_5_PAD_INNER" cx="1378" cy="692" r="35.88" fill="var(--accent-2)" fill-opacity="0.22"/>
    <circle cx="1378" cy="692" r="37" fill="none" stroke="var(--accent-5)" stroke-width="3" stroke-dasharray="6 4"/>
    <g id="ITEM_5_ICON" transform="translate(1344, 658)" data-icon-size="68" stroke-dasharray="6 4">
      <g transform="translate(-7.005714285714289,-7.966785714285718) scale(2.562857142857143)">
        <path d="M2.6272 3.69393C2.79618 3.37207 3.19408 3.24814 3.51593 3.41712L5.11458 4.25644C6.39399 4.92099 7.19817 6.25709 7.19817 7.6999V9.0099C7.19817 9.37341 6.90348 9.6681 6.53997 9.6681C6.17646 9.6681 5.88177 9.37341 5.88177 9.0099V7.6999C5.88177 6.74326 5.34656 5.85986 4.50683 5.42415L4.504 5.42268L2.90401 4.58265C2.58216 4.41367 2.45823 4.01578 2.6272 3.69393Z" fill="#008463"/>
        <path d="M12.8028 3.69393C12.9718 4.01578 12.8478 4.41367 12.526 4.58265L10.9232 5.42416C10.0834 5.85987 9.54822 6.74326 9.54822 7.6999V9.0099C9.54822 9.37341 9.25354 9.6681 8.89002 9.6681C8.52651 9.6681 8.23182 9.37341 8.23182 9.0099V7.6999C8.23182 6.25709 9.036 4.92099 10.3154 4.25644L11.9141 3.41712C12.2359 3.24814 12.6338 3.37207 12.8028 3.69393Z" fill="#008463"/>
        <path d="M12.23 20.9C12.9646 20.9 13.56 20.3045 13.56 19.5699C13.56 18.8354 12.9646 18.24 12.23 18.24C11.4955 18.24 10.9 18.8354 10.9 19.5699C10.9 20.3045 11.4955 20.9 12.23 20.9Z" fill="#008463"/>
        <path d="M14.89 23.56C14.89 24.2945 14.2945 24.89 13.56 24.89C12.8254 24.89 12.23 24.2945 12.23 23.56C12.23 22.8255 12.8254 22.23 13.56 22.23C14.2945 22.23 14.89 22.8255 14.89 23.56Z" fill="#008463"/>
        <path d="M16.22 28.16C16.9546 28.16 17.55 27.5646 17.55 26.83C17.55 26.0955 16.9546 25.5 16.22 25.5C15.4855 25.5 14.89 26.0955 14.89 26.83C14.89 27.5646 15.4855 28.16 16.22 28.16Z" fill="#008463"/>
        <path d="M21.9799 28.02C21.9799 28.7545 21.3845 29.35 20.6499 29.35C19.9154 29.35 19.3199 28.7545 19.3199 28.02C19.3199 27.2854 19.9154 26.6899 20.6499 26.6899C21.3845 26.6899 21.9799 27.2854 21.9799 28.02Z" fill="#008463"/>
        <path d="M26.58 28.02C26.58 28.7545 25.9846 29.35 25.25 29.35C24.5155 29.35 23.92 28.7545 23.92 28.02C23.92 27.2854 24.5155 26.6899 25.25 26.6899C25.9846 26.6899 26.58 27.2854 26.58 28.02Z" fill="#008463"/>
        <path d="M20.36 28.02H26.25C28.28 28.02 29.99 26.3599 29.95 24.3199C29.91 22.3499 28.3 20.7599 26.32 20.7599H21.88C20.92 20.7599 20.08 20.1199 19.83 19.1899L18.24 13.41C17.36 10.2 14.44 7.97998 11.12 7.97998H6.46997C4.91714 7.97998 3.55154 8.95132 3.01326 10.3211L2.32031 11.68L3.01326 12.9165C3.53913 14.2747 4.85724 15.24 6.39997 15.24H9.59997C10.56 15.24 11.4 15.88 11.65 16.81L13.24 22.59C14.12 25.8 17.04 28.02 20.36 28.02Z" fill="#00D26A"/>
        <path d="M2.76997 11.68C2.76049 11.196 2.84949 10.7334 3.01789 10.3093C2.96046 10.2967 2.90093 10.29 2.84 10.29C2.38 10.29 2 10.66 2 11.13V12.11C2 12.57 2.38 12.95 2.84 12.95C2.90122 12.95 2.96103 12.9433 3.01871 12.9305C2.8663 12.5417 2.77892 12.1203 2.76997 11.68Z" fill="#212121"/>
        <path d="M6.03999 11.13C6.03999 10.67 5.65999 10.29 5.19999 10.29C4.72999 10.29 4.35999 10.66 4.35999 11.13V12.11C4.35999 12.57 4.73999 12.95 5.19999 12.95C5.65999 12.95 6.03999 12.57 6.03999 12.11V11.13Z" fill="#212121"/>
      </g>
    </g>
    <rect id="ITEM_5_TEXT_BG" x="1418.0" y="690.0" width="326.0" height="186.0" rx="22" fill="var(--panel)" fill-opacity="0.94" stroke="var(--primary-text)" stroke-opacity="0.12" stroke-width="1.5"/>
    <rect id="COMPARISON_COLUMNS_ART_PANEL_SHEEN_5" x="1418.0" y="690.0" width="326.0" height="186.0" rx="16" fill="var(--accent-2)" opacity="0.82" fill-opacity="0.15" stroke="none"/>
    <text id="ITEM_5_HEAD" x="1581.0" y="706.0" text-anchor="middle" font-size="28" font-weight="800" fill="var(--primary-text)" data-bg-id="ITEM_5_TEXT_BG" fill-opacity="1.0" stroke="none" style="font-size: 30px; font-family: Inter, Segoe UI, Kalam, Roboto, Helvetica, Arial, sans-serif; font-weight: 700; letter-spacing:-0.4px;" data-final-font-size="30">
      <tspan x="1581.0" dy="38.01px">Critics View</tspan>
    </text>
    <rect id="ITEM_5_HEAD_FRAME" x="1446" y="706" width="270" height="48" fill="none"/>
    <text id="ITEM_5_BODY" x="1581.0" y="754.0" text-anchor="middle" font-size="18" fill="var(--primary-text)" data-bg-id="ITEM_5_TEXT_BG" style="font-size: 26px; font-family: Inter, Segoe UI, Kalam, Roboto, Helvetica, Arial, sans-serif; font-weight: 400;" data-final-font-size="26">
      <tspan x="1581.0" dy="31.63px">Current systems show</tspan>
      <tspan x="1581.0" dy="29.90px">weaknesses and limited</tspan>
      <tspan x="1581.0" dy="29.90px">real-world autonomy</tspan>
    </text>
    <rect id="ITEM_5_BODY_FRAME" x="1436" y="754" width="290" height="116" fill="none"/>
  </g>
</svg>
