<?xml version='1.0' encoding='utf-8'?>
<svg xmlns="http://www.w3.org/2000/svg" width="1920" height="1080" viewBox="0 0 1920 1080" data-theme="light">
  <style>
        @font-face {
            font-family: 'Inter';
            src: url('assets/fonts/Inter-Regular.ttf') format('truetype');
            font-weight: 400;
            font-style: normal;
            font-display: swap;
        }
        @font-face {
            font-family: 'Inter';
            src: url('assets/fonts/Inter-Bold.ttf') format('truetype');
            font-weight: 600;
            font-style: normal;
            font-display: swap;
        }
        @font-face {
            font-family: 'Inter';
            src: url('assets/fonts/Inter-Bold.ttf') format('truetype');
            font-weight: 800;
            font-style: normal;
            font-display: swap;
        }
        
:root {
    --background: #f8fafc;
    --panel: #ffffff;
    --primary-text: #0f172a;
    --muted-text: #64748b;
    --inverse-text: #ffffff;
    --border: #e2e8f0;
    --shadow-color: #000000;
    --icon-pad-bg: #1e293b;
    --art-glow: #0891b2;
    --art-glow-opacity: 0.10;
    --art-sheen: #ffffff;
    --art-sheen-opacity: 0.34;
    --art-shadow: #0f172a;
    --art-shadow-opacity: 0.14;
    --art-muted-line: #94a3b8;
    --art-panel-tint: #f1f5f9;
    --font-family: 'Inter', 'Segoe UI', 'Kalam', Roboto, Helvetica, Arial, sans-serif;
    --radius-xl: 16px;
    --font-family-headline: 'Inter', 'Segoe UI', 'Kalam', Roboto, Helvetica, Arial, sans-serif;
    --font-family-body: 'Inter', 'Segoe UI', 'Kalam', Roboto, Helvetica, Arial, sans-serif;
    --font-heading: 'Inter', 'Segoe UI', 'Kalam', Roboto, Helvetica, Arial, sans-serif;
    --font-body: 'Inter', 'Segoe UI', 'Kalam', Roboto, Helvetica, Arial, sans-serif;
    --font-size-h1: 56px;
    --font-size-h2: 40px;
    --font-size-h3: 28px;
    --font-size-body: 24px;
    --font-size-caption: 18px;
    --secondary-text: var(--muted-text);
    --panel-border: var(--border);
    --font-weight-normal: 400;
    --font-weight-medium: 500;
    --font-weight-semibold: 600;
    --font-weight-bold: 700;
    --spacing-gutter-pct: 0.07;
    --spacing-top-pct: 0.15;
    --spacing-bottom-pct: 0.07;
    --spacing-title-y-pct: 0.055;
    --accent-1: #3b82f6;
    --accent-2: #22c55e;
    --accent-3: #f59e0b;
    --accent-4: #ec4899;
    --accent-5: #8b5cf6;
    --accent-6: #06b6d4;
}
:root[data-theme="dark"] {
    --background: #0f172a;
    --panel: #1e293b;
    --primary-text: #f1f5f9;
    --muted-text: #94a3b8;
    --inverse-text: #0f172a;
    --border: #334155;
    --shadow-color: #000000;
    --icon-pad-bg: #1e293b;
    --art-glow: #7dd3fc;
    --art-glow-opacity: 0.18;
    --art-sheen: #ffffff;
    --art-sheen-opacity: 0.18;
    --art-shadow: #000000;
    --art-shadow-opacity: 0.28;
    --art-muted-line: #64748b;
    --art-panel-tint: #1e293b;
    --accent-1: #93c5fd;
    --accent-2: #86efac;
    --accent-3: #fcd34d;
    --accent-4: #f9a8d4;
    --accent-5: #c4b5fd;
    --accent-6: #a5f3fc;
}
:root[data-theme="light"] {
    --background: #f8fafc;
    --panel: #ffffff;
    --primary-text: #0f172a;
    --muted-text: #64748b;
    --inverse-text: #ffffff;
    --border: #e2e8f0;
    --shadow-color: #000000;
    --icon-pad-bg: #1e293b;
    --art-glow: #0891b2;
    --art-glow-opacity: 0.10;
    --art-sheen: #ffffff;
    --art-sheen-opacity: 0.34;
    --art-shadow: #0f172a;
    --art-shadow-opacity: 0.14;
    --art-muted-line: #94a3b8;
    --art-panel-tint: #f1f5f9;
    --accent-1: #3b82f6;
    --accent-2: #22c55e;
    --accent-3: #f59e0b;
    --accent-4: #ec4899;
    --accent-5: #8b5cf6;
    --accent-6: #06b6d4;
}</style>
  <rect x="0" y="0" width="1.92E+3" height="1.08E+3" fill="#252a34" stroke="none" id="programmatic_background"/>
  <line id="HEADER_DECOR" x1="960.0" x2="1080.0" y1="115.0" y2="115.0" stroke="var(--accent-1)" stroke-width="6" stroke-linecap="round"/>
  <defs>
    <pattern id="svg1efce27b-napkin-hatch" patternUnits="userSpaceOnUse" width="12" height="12">
      <path d="M -3 12 L 12 -3 M 0 15 L 15 0" fill="none" stroke="var(--primary-text)" stroke-width="1" stroke-opacity="0.05"/>
    </pattern>
    <filter id="svg1efce27b-shadow" x="-30%" y="-30%" width="160%" height="160%">
      <feDropShadow dx="0" dy="2" stdDeviation="3" flood-color="#000000" flood-opacity="0.08"/>
      <feDropShadow dx="0" dy="6" stdDeviation="10" flood-color="#000000" flood-opacity="0.12"/>
    </filter>
    <radialGradient id="svg1efce27b-universal-edge-vignette" cx="50%" cy="50%" r="72%">
      <stop offset="0%" stop-color="var(--background)" stop-opacity="0"/>
      <stop offset="72%" stop-color="var(--background)" stop-opacity="0.12"/>
      <stop offset="100%" stop-color="var(--primary-text)" stop-opacity="0.08"/>
    </radialGradient>
    <linearGradient id="svg1efce27b-universal-surface-sheen" x1="0%" y1="0%" x2="100%" y2="100%">
      <stop offset="0%" stop-color="var(--art-sheen)" stop-opacity="var(--art-sheen-opacity)"/>
      <stop offset="46%" stop-color="var(--art-sheen)" stop-opacity="0.035"/>
      <stop offset="100%" stop-color="var(--art-panel-tint)" stop-opacity="0.14"/>
    </linearGradient>
    <radialGradient id="svg1efce27b-universal-icon-aura" cx="50%" cy="42%" r="64%">
      <stop offset="0%" stop-color="var(--art-glow)" stop-opacity="var(--art-glow-opacity)"/>
      <stop offset="100%" stop-color="var(--background)" stop-opacity="0"/>
    </radialGradient>
    <linearGradient id="svg1efce27b-taxonomy-node-sheen" x1="0%" y1="0%" x2="100%" y2="100%">
      <stop offset="0%" stop-color="var(--inverse-text)" stop-opacity="0.18"/>
      <stop offset="100%" stop-color="var(--background)" stop-opacity="0.14"/>
    </linearGradient>
    <filter id="svg1efce27b-text-glow" x="-20%" y="-20%" width="140%" height="140%">
      <feDropShadow dx="0" dy="0" stdDeviation="2" flood-color="#000000" flood-opacity="0.4"/>
    </filter>
    <marker id="svg1efce27b-arrowhead" markerWidth="10" markerHeight="7" refX="9" refY="3.5" orient="auto" markerUnits="strokeWidth">
      <polygon points="0 0, 10 3.5, 0 7" fill="var(--muted-text)" opacity="0.6"/>
    </marker>
  </defs>
  <rect width="100%" height="100%" fill="var(--background)" id="CANVAS_BG"/>
  <rect width="100%" height="100%" fill="url(#svg1efce27b-napkin-hatch)"/>
  <rect id="UNIVERSAL_EDGE_VIGNETTE" width="100%" height="100%" fill="url(#svg1efce27b-universal-edge-vignette)" opacity="0.62"/>
  <text id="TITLE" x="960.0" y="59" text-anchor="middle" font-weight="800" font-size="56" fill="#0f172a" style="font-size: 60px; font-family: Inter, Segoe UI, Kalam, Roboto, Helvetica, Arial, sans-serif; font-weight: 700; letter-spacing:-1.2px;" data-final-font-size="60">
    <tspan x="960.0" dy="68.00px">Deskilling Mechanisms</tspan>
  </text>
  <rect id="TITLE_FRAME" x="134" y="39" width="1652" height="103" fill="none"/>
  <g id="DIAGRAM_SCALER" transform="translate(50, 20) scale(0.95)">
    <!-- Parent Node (ITEM_1) - Top Box -->
    <g transform="translate(960, 235)">
      <rect x="-310" y="-75" width="620" height="150" rx="18" fill="var(--panel)" stroke="var(--accent-1)" stroke-width="6" filter="url(#svg1efce27b-shadow)"/>
      <circle id="ITEM_1_PAD" cx="-150" cy="0" r="55" fill="var(--icon-pad-bg)" stroke="var(--primary-text)" opacity="0.9" fill-opacity="0.9" stroke-width="2"/>
      <circle id="ITEM_1_PAD_INNER" cx="-150" cy="0" r="42.90" fill="var(--accent-4)" fill-opacity="0.22"/>
      <circle cx="-150" cy="0" r="44" fill="none" stroke="var(--accent-1)" stroke-width="3" stroke-dasharray="6 4"/>
      <g id="ITEM_1_ICON" transform="translate(-192, -42)" data-icon-size="84" stroke-dasharray="6 4">
        <g transform="translate(-7.028571428571427,-8.560714285714283) scale(3.064285714285714)">
          <path d="M6.01869 5C6.56075 5 7 4.55238 7 4C7 3.44762 6.56075 3 6.01869 3H5L4 4L5 5H6.01869Z" fill="#635994"/>
          <path d="M18 20.1005C18 17.0001 20.0717 14.9828 23 15C26 15.0177 28 17.1814 28 20V22.0049H26V20C26 17.8148 25 17.0001 23 17.0001C20.9035 17 20 17.914 20 20V23.622C20 27.1434 17.4173 30 14 30C10.5827 30 8 27.133 8 23.622V18.9446C4.22927 18.5167 2.00062 15.6445 2.00827 11.5C2.00827 11.4915 2.00755 11.4575 2.00653 11.4095C2.00419 11.2996 2.00029 11.1166 2 11L3 10C3 10 4.00412 11.0855 4.00378 11C4.01943 15 6.00758 17 9.00377 17C12 17 14.0006 15 14.0006 11C13.9997 11.1364 15 10 15 10L16 11C15.9996 11.168 15.9993 11.4719 15.9993 11.5C15.9993 15.6473 13.7741 18.5205 10 18.9454V23.622C10 25.9073 11.7823 28.0001 14 28.0001C16.2177 28.0001 18 25.9073 18 23.622V20.1005Z" fill="#635994"/>
          <path d="M11 4C11 4.55238 11.4393 5 11.9813 5H13L14 4L13 3H11.9813C11.4393 3 11 3.44762 11 4Z" fill="#635994"/>
          <path d="M4.59794 3H5V5H4.5C4.01602 5 4 5.25 4 5.5V11L2 11V5.6114C2 4.17098 3.16495 3 4.59794 3Z" fill="#00A6ED"/>
          <path d="M27 25C28.6569 25 30 23.6569 30 22C30 20.3431 28.6569 19 27 19C25.3431 19 24 20.3431 24 22C24 23.6569 25.3431 25 27 25Z" fill="#00A6ED"/>
          <path d="M13 3H13.4021C14.8351 3 16 4.17098 16 5.6114V11L14 11V5.5C14 5.25 13.984 5 13.5 5H13V3Z" fill="#00A6ED"/>
          <path d="M27 23.5C27.8284 23.5 28.5 22.8284 28.5 22C28.5 21.1716 27.8284 20.5 27 20.5C26.1716 20.5 25.5 21.1716 25.5 22C25.5 22.8284 26.1716 23.5 27 23.5Z" fill="#3F5FFF"/>
        </g>
      </g>
      <rect id="ITEM_1_TEXT_BG" x="-34.0" y="-66.0" width="352.0" height="212.0" rx="22" fill="var(--panel)" fill-opacity="0.94" stroke="none" stroke-opacity="0" stroke-width="1.5"/>
      <text id="ITEM_1_HEAD" data-bg-id="ITEM_1_TEXT_BG" x="144.0" y="-50.0" text-anchor="middle" font-weight="bold" font-size="28" fill="var(--primary-text)" fill-opacity="1.0" style="font-size: 30px; font-family: Inter, Segoe UI, Kalam, Roboto, Helvetica, Arial, sans-serif; font-weight: 700; letter-spacing:-0.4px;" data-final-font-size="30">
        <tspan x="144.0" dy="35.13px">Diagnostic Drop</tspan>
      </text>
      <rect id="ITEM_1_HEAD_FRAME" x="-12" y="-50" width="312" height="48" fill="none"/>
      <text id="ITEM_1_BODY" data-bg-id="ITEM_1_TEXT_BG" x="144.0" y="14.0" text-anchor="middle" font-size="21" fill="var(--primary-text)" opacity="0.9" style="font-size: 26px; font-family: Inter, Segoe UI, Kalam, Roboto, Helvetica, Arial, sans-serif; font-weight: 400;" data-final-font-size="26">
        <tspan x="144.0" dy="30.70px">Physician performance</tspan>
        <tspan x="144.0" dy="29.90px">falls when AI</tspan>
        <tspan x="144.0" dy="29.90px">support is removed</tspan>
      </text>
      <rect id="ITEM_1_BODY_FRAME" x="8" y="14" width="272" height="116" fill="none"/>
    </g>
    <!-- Vertical connector from top box -->
    <path d="M 960 310 L 960 400" stroke="var(--muted-text)" stroke-width="6"/>
    <!-- Horizontal connector bar -->
    <path d="M 320 400 L 1600 400" stroke="var(--muted-text)" stroke-width="6"/>
    <!-- Vertical connectors to children -->
    <line x1="320" y1="400" x2="320" y2="475" stroke="var(--muted-text)" stroke-width="6"/>
    <line x1="960" y1="400" x2="960" y2="475" stroke="var(--muted-text)" stroke-width="6"/>
    <line x1="1600" y1="400" x2="1600" y2="475" stroke="var(--muted-text)" stroke-width="6"/>
    <!-- Child Node 1 (ITEM_2) -->
    <g transform="translate(320, 545)">
      <circle id="ITEM_2_PAD" cx="0" cy="0" r="70" fill="var(--icon-pad-bg)" stroke="var(--primary-text)" opacity="0.9" fill-opacity="0.9" stroke-width="2"/>
      <circle id="ITEM_2_PAD_INNER" cx="0" cy="0" r="54.60" fill="var(--accent-5)" fill-opacity="0.22"/>
      <circle cx="0" cy="0" r="56" fill="none" stroke="var(--accent-2)" stroke-width="3" stroke-dasharray="6 4" filter="url(#svg1efce27b-shadow)"/>
      <g id="ITEM_2_ICON" transform="translate(-42, -42)" data-icon-size="84" stroke-dasharray="6 4">
        <g transform="translate(-17.227118644067797,-17.227118644067797) scale(4.935593220338983)" vector-effect="non-scaling-stroke" stroke-width="2.72" stroke-linecap="round" stroke-linejoin="round" stroke-opacity="1.0">
          <path d="m2 2 20 20" vector-effect="non-scaling-stroke" fill="none" stroke="#f1f5f9"/>
          <path d="M8.35 2.69A10 10 0 0 1 21.3 15.65" vector-effect="non-scaling-stroke" fill="none" stroke="#f1f5f9"/>
          <path d="M19.08 19.08A10 10 0 1 1 4.92 4.92" vector-effect="non-scaling-stroke" fill="none" stroke="#f1f5f9"/>
        </g>
      </g>
      <g transform="translate(0, 100)">
        <rect x="-200" y="-15" width="400" height="230" rx="16" fill="var(--accent-5)" fill-opacity="1.0" stroke="var(--accent-2)" id="ITEM_2_BG" stroke-width="3"/>
        <rect x="-190" y="-5" width="380" height="210" rx="14" fill="url(#svg1efce27b-taxonomy-node-sheen)" opacity="0.85"/>
        <rect id="ITEM_2_TEXT_BG" x="-208.0" y="-9.0" width="416.0" height="227.0" rx="22" fill="var(--panel)" fill-opacity="0.94" stroke="none" stroke-opacity="0" stroke-width="1.5"/>
        <text id="ITEM_2_HEAD" text-anchor="middle" font-weight="bold" font-size="28" fill="var(--inverse-text)" x="0.0" y="7.0" data-bg-id="ITEM_2_BG" fill-opacity="1.0" style="font-size: 30px; font-family: Inter, Segoe UI, Kalam, Roboto, Helvetica, Arial, sans-serif; font-weight: 700; letter-spacing:-0.4px;" data-final-font-size="30">
          <tspan x="0.0" dy="35.13px">Routine Offload</tspan>
        </text>
        <rect id="ITEM_2_HEAD_FRAME" x="-190" y="7" width="380" height="48" fill="none"/>
        <text id="ITEM_2_BODY" text-anchor="middle" font-size="21" fill="var(--primary-text)" x="0.0" y="62.0" data-bg-id="ITEM_2_TEXT_BG" opacity="0.9" style="font-size: 26px; font-family: Inter, Segoe UI, Kalam, Roboto, Helvetica, Arial, sans-serif; font-weight: 400;" data-final-font-size="26">
          <tspan x="0.0" dy="42.44px">Staff shift from doing work</tspan>
          <tspan x="0.0" dy="29.90px">to merely approving outputs</tspan>
        </text>
        <rect id="ITEM_2_BODY_FRAME" x="-190" y="62" width="380" height="140" fill="none"/>
      </g>
    </g>
    <!-- Child Node 2 (ITEM_3) -->
    <g transform="translate(960, 545)">
      <circle id="ITEM_3_PAD" cx="0" cy="0" r="70" fill="var(--icon-pad-bg)" stroke="var(--primary-text)" opacity="0.9" fill-opacity="0.9" stroke-width="2"/>
      <circle id="ITEM_3_PAD_INNER" cx="0" cy="0" r="54.60" fill="var(--accent-6)" fill-opacity="0.22"/>
      <circle cx="0" cy="0" r="56" fill="none" stroke="var(--accent-3)" stroke-width="3" stroke-dasharray="6 4" filter="url(#svg1efce27b-shadow)"/>
      <g id="ITEM_3_ICON" transform="translate(-42, -42)" data-icon-size="84" stroke-dasharray="6 4">
        <g transform="translate(-20.400000000000002,-20.400000000000002) scale(3.9)">
          <path d="M13.9722 3.06962L7.11285 29.0903C6.97408 29.6301 6.48837 30 5.9432 30H2.85056C2.28556 30 1.88907 29.4702 2.02784 28.9304L8.88715 2.90968C9.02592 2.37986 9.51163 2 10.0667 2H13.1494C13.7144 2 14.1109 2.52981 13.9722 3.06962Z" fill="#7D4533"/>
          <path d="M29.9726 3.06962L23.1187 29.0903C22.9702 29.6301 22.4947 30 21.9401 30H18.8499C18.2853 30 17.8892 29.4702 18.0278 28.9304L18.27 28.0109L17.3715 26.4623L19.0645 24.9947L20.1199 20.9878L19.2154 19.4619L20.9024 18.017L21.9639 13.9871L21.0599 12.4594L22.7474 11.0127L23.8146 6.9612L22.908 5.44292L24.593 4.0057L24.8817 2.90968C25.0204 2.37986 25.5057 2 26.0604 2H29.1506C29.7052 2 30.1113 2.52981 29.9726 3.06962Z" fill="#7D4533"/>
          <path d="M19.0631 25L18.2729 28H5.54632C5.1809 28 4.91163 27.6288 5.02703 27.2575L5.56556 25.4615C5.65211 25.1806 5.89252 25 6.1714 25H19.0631Z" fill="#A56953"/>
          <path d="M20.9069 18L20.1167 21H7.08312C6.69308 21 6.40568 20.6288 6.52885 20.2575L7.10365 18.4615C7.19603 18.1806 7.45263 18 7.7503 18H20.9069Z" fill="#A56953"/>
          <path d="M23.8043 7L24.5945 4H11.24C10.9424 4 10.6858 4.18 10.5934 4.46L10.0289 6.26C9.90568 6.63 10.1931 7 10.5831 7H23.8043Z" fill="#A56953"/>
          <path d="M22.7507 11H9.2503C8.95263 11 8.69603 11.1806 8.60365 11.4615L8.02885 13.2575C7.90568 13.6288 8.19308 14 8.58312 14H21.9605L22.7507 11Z" fill="#A56953"/>
        </g>
      </g>
      <g transform="translate(0, 100)">
        <rect x="-200" y="-15" width="400" height="230" rx="16" fill="var(--accent-6)" fill-opacity="1.0" stroke="var(--accent-3)" id="ITEM_3_BG" stroke-width="3"/>
        <rect x="-190" y="-5" width="380" height="210" rx="14" fill="url(#svg1efce27b-taxonomy-node-sheen)" opacity="0.85"/>
        <rect id="ITEM_3_TEXT_BG" x="-208.0" y="-9.0" width="416.0" height="227.0" rx="22" fill="var(--panel)" fill-opacity="0.94" stroke="none" stroke-opacity="0" stroke-width="1.5"/>
        <text id="ITEM_3_HEAD" text-anchor="middle" font-weight="bold" font-size="28" fill="var(--primary-text)" x="0.0" y="7.0" data-bg-id="ITEM_3_BG" fill-opacity="1.0" style="font-size: 30px; font-family: Inter, Segoe UI, Kalam, Roboto, Helvetica, Arial, sans-serif; font-weight: 700; letter-spacing:-0.4px;" data-final-font-size="30">
          <tspan x="0.0" dy="35.13px">Apprenticeship Collapse</tspan>
        </text>
        <rect id="ITEM_3_HEAD_FRAME" x="-190" y="7" width="380" height="48" fill="none"/>
        <text id="ITEM_3_BODY" text-anchor="middle" font-size="21" fill="var(--primary-text)" x="0.0" y="62.0" data-bg-id="ITEM_3_TEXT_BG" opacity="0.9" style="font-size: 26px; font-family: Inter, Segoe UI, Kalam, Roboto, Helvetica, Arial, sans-serif; font-weight: 400;" data-final-font-size="26">
          <tspan x="0.0" dy="42.44px">Entry-level roles vanish, blocking</tspan>
          <tspan x="0.0" dy="29.90px">tacit knowledge transfer</tspan>
        </text>
        <rect id="ITEM_3_BODY_FRAME" x="-190" y="62" width="380" height="140" fill="none"/>
      </g>
    </g>
    <!-- Child Node 3 (ITEM_4) -->
    <g transform="translate(1600, 545)">
      <circle id="ITEM_4_PAD" cx="0" cy="0" r="70" fill="var(--icon-pad-bg)" stroke="var(--primary-text)" opacity="0.9" fill-opacity="0.9" stroke-width="2"/>
      <circle id="ITEM_4_PAD_INNER" cx="0" cy="0" r="54.60" fill="var(--accent-1)" fill-opacity="0.22"/>
      <circle cx="0" cy="0" r="56" fill="none" stroke="var(--accent-4)" stroke-width="3" stroke-dasharray="6 4" filter="url(#svg1efce27b-shadow)"/>
      <g id="ITEM_4_ICON" transform="translate(-42, -42)" data-icon-size="84" stroke-dasharray="6 4">
        <g transform="translate(-17.227118644067797,-17.2271186440678) scale(4.935593220338983)" vector-effect="non-scaling-stroke" stroke-width="2.72" stroke-linecap="round" stroke-linejoin="round" stroke-opacity="1.0">
          <path d="m16 16 3-8 3 8c-.87.65-1.92 1-3 1s-2.13-.35-3-1Z" vector-effect="non-scaling-stroke" fill="none" stroke="#f1f5f9"/>
          <path d="m2 16 3-8 3 8c-.87.65-1.92 1-3 1s-2.13-.35-3-1Z" vector-effect="non-scaling-stroke" fill="none" stroke="#f1f5f9"/>
          <path d="M7 21h10" vector-effect="non-scaling-stroke" fill="none" stroke="#f1f5f9"/>
          <path d="M12 3v18" vector-effect="non-scaling-stroke" fill="none" stroke="#f1f5f9"/>
          <path d="M3 7h2c2 0 5-1 7-2 2 1 5 2 7 2h2" vector-effect="non-scaling-stroke" fill="none" stroke="#f1f5f9"/>
        </g>
      </g>
      <g transform="translate(0, 100)">
        <rect x="-200" y="-15" width="400" height="230" rx="16" fill="var(--accent-1)" fill-opacity="1.0" stroke="var(--accent-4)" id="ITEM_4_BG" stroke-width="3"/>
        <rect x="-190" y="-5" width="380" height="210" rx="14" fill="url(#svg1efce27b-taxonomy-node-sheen)" opacity="0.85"/>
        <rect id="ITEM_4_TEXT_BG" x="-208.0" y="-9.0" width="416.0" height="227.0" rx="22" fill="var(--panel)" fill-opacity="0.94" stroke="none" stroke-opacity="0" stroke-width="1.5"/>
        <text id="ITEM_4_HEAD" text-anchor="middle" font-weight="bold" font-size="28" fill="var(--primary-text)" x="0.0" y="7.0" data-bg-id="ITEM_4_BG" fill-opacity="1.0" style="font-size: 30px; font-family: Inter, Segoe UI, Kalam, Roboto, Helvetica, Arial, sans-serif; font-weight: 700; letter-spacing:-0.4px;" data-final-font-size="30">
          <tspan x="0.0" dy="35.13px">Judgment Vacuum</tspan>
        </text>
        <rect id="ITEM_4_HEAD_FRAME" x="-190" y="7" width="380" height="48" fill="none"/>
        <text id="ITEM_4_BODY" text-anchor="middle" font-size="21" fill="var(--primary-text)" x="0.0" y="62.0" data-bg-id="ITEM_4_TEXT_BG" opacity="0.9" style="font-size: 26px; font-family: Inter, Segoe UI, Kalam, Roboto, Helvetica, Arial, sans-serif; font-weight: 400;" data-final-font-size="26">
          <tspan x="0.0" dy="36.46px">Organisations expand AI usage</tspan>
          <tspan x="0.0" dy="29.90px">while compressing</tspan>
          <tspan x="0.0" dy="29.90px">governance pathways</tspan>
        </text>
        <rect id="ITEM_4_BODY_FRAME" x="-190" y="62" width="380" height="140" fill="none"/>
      </g>
    </g>
  </g>
</svg>
